<?xml version="1.0" standalone="no"?>
<!DOCTYPE svg PUBLIC "-//W3C//DTD SVG 1.1//EN" "http://www.w3.org/Graphics/SVG/1.1/DTD/svg11.dtd" >
<svg xmlns="http://www.w3.org/2000/svg">
<metadata>Generated by IcoMoon</metadata>
<defs>
<font id="weather" horiz-adv-x="1024">
<font-face units-per-em="1024" ascent="960" descent="-64" />
<missing-glyph horiz-adv-x="1024" />
<glyph unicode="&#x20;" horiz-adv-x="512" d="" />
<glyph unicode="&#xe900;" glyph-name="Cloud" d="M372.361 75.64c-205.637 0-372.361 166.689-372.361 372.361s166.723 372.361 372.361 372.361c139.738 0 261.356-77.084 325.035-190.929 15.454 2.641 31.141 4.782 47.327 4.782 154.248 0 279.277-125.063 279.277-279.311 0-154.202-125.028-279.265-279.277-279.265-64.597 0-297.93 0-372.361 0zM744.721 168.737c102.825 0 186.193 83.368 186.193 186.169 0 102.825-83.368 186.193-186.193 186.193-37.239 0-71.731-11.205-100.858-30.058-28.661 123.725-139.040 216.239-271.504 216.239-154.214 0-279.265-125.028-279.265-279.277 0-154.214 125.028-279.265 279.265-279.265 84.193 0 302.085 0 372.361 0z" />
<glyph unicode="&#xe901;" glyph-name="Cloud-Download" d="M744.735 90.898c-12.056 0-29.956 0-51.602 0l48.902 48.925c13.709 13.734 23.951 29.583 30.77 46.506 89.473 13.593 158.112 90.612 158.112 183.834 0 102.832-83.35 186.207-186.184 186.207-36.055 0-69.409-10.661-97.922-28.42-3.235 13.011-8.333 25.137-14.92 36.403-40.453 104.159-141.076 178.176-259.525 178.176-154.248 0-279.264-125.014-279.264-279.264 0-107.348 60.61-200.404 149.384-247.142 4.539-27.954 17.225-54.791 38.778-76.322l45.877-45.877c-184.275 22.321-327.141 179.015-327.141 369.34 0 205.641 166.702 372.368 372.368 372.368 139.748 0 261.364-77.090 325.048-190.955 15.454 2.653 31.097 4.771 47.32 4.771 154.248 0 279.264-125.037 279.264-279.31 0-154.18-125.014-279.239-279.264-279.239zM412.916 271.472l52.207-52.184v275.282c0 25.697 20.832 46.529 46.529 46.529s46.552-20.832 46.552-46.529v-275.282l52.184 52.184c18.155 18.177 47.67 18.177 65.825 0s18.155-47.645 0-65.825l-131.647-131.647c-18.155-18.177-47.645-18.177-65.825 0l-131.624 131.647c-18.177 18.177-18.177 47.645 0 65.825 18.155 18.177 47.622 18.177 65.8 0z" />
<glyph unicode="&#xe902;" glyph-name="Cloud-Drizzle" d="M837.829 231.504v101.968c55.558 32.235 93.056 92.194 93.056 161.066 0 102.83-83.325 186.202-186.157 186.202-37.286 0-71.781-11.194-100.875-30.049-28.676 123.732-139.024 216.229-271.482 216.229-154.244 0-279.258-125.034-279.258-279.281 0-82.605 36.054-156.62 93.056-207.755v-114.374c-111.185 64.425-186.157 184.386-186.157 322.131 0 205.661 166.698 372.359 372.359 372.359 139.745 0 261.359-77.088 325.041-190.928 15.454 2.63 31.097 4.771 47.319 4.771 154.244 0 279.258-125.059 279.258-279.304 0-121.52-77.763-224.677-186.157-263.034zM325.82 494.515c25.696 0 46.551-20.832 46.551-46.551v-93.056c0-25.719-20.855-46.551-46.551-46.551-25.719 0-46.551 20.832-46.551 46.551v93.056c0 25.741 20.832 46.551 46.551 46.551zM325.82 215.259c25.696 0 46.551-20.832 46.551-46.551v-93.056c0-25.719-20.855-46.551-46.551-46.551-25.719 0-46.551 20.832-46.551 46.551v93.056c0 25.741 20.832 46.551 46.551 46.551zM511.975 401.462c25.719 0 46.551-20.855 46.551-46.551v-93.101c0-25.696-20.832-46.551-46.551-46.551-25.696 0-46.505 20.855-46.505 46.551v93.101c0 25.696 20.832 46.551 46.505 46.551zM511.975 122.158c25.719 0 46.551-20.832 46.551-46.505v-93.101c0-25.719-20.832-46.551-46.551-46.551-25.696 0-46.505 20.832-46.505 46.551v93.101c0 25.696 20.832 46.505 46.505 46.505zM698.177 494.515c25.696 0 46.551-20.832 46.551-46.551v-93.056c0-25.719-20.855-46.551-46.551-46.551-25.719 0-46.551 20.832-46.551 46.551v93.056c0 25.741 20.832 46.551 46.551 46.551zM698.177 215.259c25.696 0 46.551-20.832 46.551-46.551v-93.056c0-25.719-20.855-46.551-46.551-46.551-25.719 0-46.551 20.832-46.551 46.551v93.056c0 25.741 20.832 46.551 46.551 46.551z" />
<glyph unicode="&#xe903;" glyph-name="Cloud-Drizzle-Alt" d="M744.689 755.798c-16.203 0-31.864-2.137-47.321-4.774-63.683 113.857-185.286 190.92-325.027 190.92-205.631 0-372.341-166.686-372.341-372.317 0-139.455 76.804-260.833 190.315-324.608 6.423 29.368 20.763 57.374 43.595 80.175l1.327 1.327c-84.807 47.968-142.106 138.781-142.106 243.103 0 154.21 125.028 279.241 279.241 279.241 132.457 0 242.816-92.492 271.496-216.216 29.095 18.855 63.611 30.043 100.851 30.043 102.829 0 186.173-83.342 186.173-186.173 0-80.13-50.784-148.276-121.844-174.515 18.34-26.672 27.791-57.514 28.435-88.607 108.575 38.288 186.517 141.462 186.517 263.117-0.042 154.237-125.073 279.268-279.31 279.268zM349.071 308.753l-49.364-49.364c-27.259-27.274-27.259-71.455 0-98.729 27.274-27.274 71.47-27.274 98.729 0 27.274 27.274 27.274 71.455 0 98.729l-49.364 49.364zM511.997 122.605l-49.364-49.364c-27.274-27.274-27.274-71.498 0-98.729 27.259-27.274 71.455-27.274 98.702 0 27.274 27.231 27.274 71.455 0 98.729l-49.344 49.364zM674.885 308.753l-49.364-49.364c-27.274-27.274-27.274-71.455 0-98.729 27.259-27.274 71.455-27.274 98.729 0 27.259 27.274 27.259 71.455 0 98.729l-49.364 49.364z" />
<glyph unicode="&#xe904;" glyph-name="Cloud-Drizzle-Moon" d="M899.902 556.074v0c27.491-39.139 43.776-86.708 43.776-138.217 0-104.841-67.11-193.818-160.607-226.932v87.974c47.972 27.811 80.284 79.54 80.284 138.959 0 88.716-71.889 160.646-160.607 160.646-32.129 0-61.929-9.68-87.030-25.925-24.699 106.749-119.943 186.551-234.223 186.551-133.074 0-240.932-107.875-240.932-240.949 0-71.269 31.106-135.123 80.284-179.242v-98.676c-95.886 55.583-160.607 159.081-160.607 277.918 0 177.434 143.818 321.255 321.255 321.255 40.201 0 78.595-7.53 114.058-21.025v0c32.831 94.019 122.051 161.589 227.273 161.589 15.18 0 29.922-1.567 44.319-4.257-2.63-11.546-4.157-23.556-4.157-35.904 0-88.716 71.889-160.626 160.607-160.626 12.35 0 24.358 1.526 35.924 4.177 2.671-14.398 4.238-29.178 4.238-44.338-0.020-62.913-24.338-120.043-63.856-162.978zM686.886 875.519c-58.234-13.333-103.898-58.434-118.959-115.966v0c38.514-27.55 70.745-63.294 93.977-104.841 13.333 2.269 26.829 4.116 40.824 4.116 52.551 0 101.066-17.049 140.685-45.603v0c17.21 19.659 29.799 43.534 35.843 69.924-97.452 18.173-174.2 94.883-192.373 192.373zM341.315 417.859c22.189 0 40.163-17.973 40.163-40.163v-80.284c0-22.189-17.973-40.163-40.163-40.163-22.169 0-40.163 17.973-40.163 40.163v80.284c0 22.208 18.012 40.163 40.163 40.163zM341.315 176.93c22.189 0 40.163-17.973 40.163-40.163v-80.284c0-22.189-17.973-40.163-40.163-40.163-22.169 0-40.163 17.973-40.163 40.163v80.284c0 22.208 18.012 40.163 40.163 40.163zM501.961 337.576c22.169 0 40.122-17.992 40.122-40.163v-80.323c0-22.169-17.973-40.163-40.122-40.163-22.189 0-40.163 17.992-40.163 40.163v80.323c0 22.169 17.973 40.163 40.163 40.163zM501.961 96.606c22.169 0 40.122-17.973 40.122-40.122v-80.323c0-22.189-17.973-40.163-40.122-40.163-22.189 0-40.163 17.973-40.163 40.163v80.323c0 22.169 17.973 40.122 40.163 40.122zM662.568 417.859c22.189 0 40.163-17.973 40.163-40.163v-80.284c0-22.189-17.973-40.163-40.163-40.163-22.169 0-40.163 17.973-40.163 40.163v80.284c0 22.208 18.012 40.163 40.163 40.163zM662.568 176.93c22.189 0 40.163-17.973 40.163-40.163v-80.284c0-22.189-17.973-40.163-40.163-40.163-22.169 0-40.163 17.973-40.163 40.163v80.284c0 22.208 18.012 40.163 40.163 40.163z" />
<glyph unicode="&#xe905;" glyph-name="Cloud-Drizzle-Moon-Alt" d="M912.046 543.425c28.351-40.362 45.124-89.419 45.124-142.517v0c0-108.243-69.354-200.044-165.938-234.11-0.558 27.667-8.987 55.084-25.328 78.838 63.264 23.338 108.431 83.973 108.431 155.274v0 0c0 91.47-74.157 165.669-165.649 165.669-33.154 0-63.845-9.982-89.751-26.735-25.491 110.087-123.694 192.384-241.545 192.384-137.235 0-248.482-111.246-248.482-248.482 0-29.075 5.26-56.866 14.456-82.834h0.311c20.191-56.742 59.952-104.184 111.703-133.467l-1.181-1.181c-20.314-20.294-33.051-45.227-38.766-71.342-77.678 43.634-135.662 117.75-158.461 205.987v0c-6.833 26.527-10.852 54.194-10.852 82.834 0 182.96 148.315 331.296 331.296 331.296 41.458 0 81.053-7.766 117.604-21.681 33.88 96.958 125.888 166.642 234.401 166.642 15.635 0 30.877-1.616 45.705-4.39-2.734-11.907-4.308-24.292-4.308-37.027 0-91.489 74.179-165.649 165.669-165.649 12.737 0 25.099 1.573 37.007 4.308 2.775-14.848 4.39-30.090 4.39-45.725-0.020-64.921-25.099-123.857-65.833-168.092zM692.369 872.838c-60.055-13.75-107.167-60.261-122.678-119.592v0c39.698-28.412 72.915-65.273 96.896-108.12 13.75 2.34 27.688 4.245 42.101 4.245 54.214 0 104.206-17.582 145.063-47.029 17.768 20.274 30.751 44.896 36.986 72.108-100.52 18.741-179.647 97.848-198.368 198.388zM356.683 251.6l43.923-43.923c24.27-24.27 24.27-63.576 0-87.846-24.25-24.27-63.576-24.27-87.846 0-24.25 24.27-24.25 63.576 0 87.846l43.923 43.923zM501.623 85.971l43.923-43.923c24.27-24.27 24.27-63.616 0-87.846-24.25-24.27-63.576-24.27-87.846 0-24.25 24.229-24.25 63.576 0 87.846l43.923 43.923zM646.56 251.6l43.923-43.923c24.27-24.27 24.27-63.576 0-87.846-24.25-24.27-63.576-24.27-87.846 0-24.25 24.27-24.25 63.576 0 87.846l43.923 43.923z" />
<glyph unicode="&#xe906;" glyph-name="Cloud-Drizzle-Sun" d="M938.655 516.275h-68.259c-18.844 0-34.138 15.277-34.138 34.138 0 18.844 15.294 34.121 34.138 34.121h68.259c18.844 0 34.138-15.277 34.138-34.121 0-18.861-15.277-34.138-34.138-34.138zM804.56 743.497c-13.33-13.33-34.958-13.33-48.271 0-13.33 13.313-13.33 34.94 0 48.253l48.271 48.271c13.313 13.33 34.94 13.33 48.271 0 13.313-13.313 13.313-34.94 0-48.271l-48.271-48.253zM754.258 477.101v0c29.854-35.606 47.878-81.419 47.878-131.516 0-89.117-57.044-164.748-136.535-192.895v74.778c40.777 23.64 68.276 67.611 68.276 118.117 0 75.41-61.141 136.551-136.535 136.551-27.327 0-52.639-8.228-73.976-22.036-21.011 90.739-101.953 158.571-199.091 158.571-113.115 0-204.81-91.694-204.81-204.81 0-60.578 26.473-114.857 68.276-152.357v-83.876c-81.537 47.246-136.535 135.219-136.535 236.234 0 150.822 122.248 273.069 273.069 273.069 26.832 0 52.725-3.961 77.204-11.163 37.467 48.253 95.876 79.439 161.728 79.439 113.115 0 204.794-91.694 204.794-204.794-0.017-25.86-5.001-50.542-13.74-73.312zM563.189 686.931c-37.773 0-71.946-15.329-96.661-40.112 39.959-24.512 73.158-58.921 96.098-99.905 11.333 1.929 22.805 3.499 34.701 3.499 36.271 0 70.289-9.541 99.853-26.063v0c1.639 8.433 2.544 17.137 2.544 26.063 0 75.393-61.123 136.518-136.535 136.518zM563.189 823.482c-18.844 0-34.138 15.277-34.138 34.121v68.259c0 18.861 15.294 34.138 34.138 34.138s34.138-15.277 34.138-34.138v-68.259c0-18.861-15.277-34.121-34.138-34.121zM321.835 743.497l-48.271 48.253c-13.313 13.33-13.313 34.958 0 48.271 13.33 13.33 34.94 13.33 48.271 0l48.271-48.271c13.33-13.313 13.33-34.94 0-48.253-13.33-13.33-34.94-13.33-48.271 0zM290.12 345.586c18.844 0 34.138-15.277 34.138-34.138v-68.242c0-18.861-15.294-34.138-34.138-34.138s-34.138 15.277-34.138 34.138v68.242c0 18.877 15.294 34.138 34.138 34.138zM290.12 140.794c18.844 0 34.138-15.277 34.138-34.138v-68.242c0-18.861-15.294-34.138-34.138-34.138s-34.138 15.277-34.138 34.138v68.242c0 18.877 15.294 34.138 34.138 34.138zM426.655 277.344c18.844 0 34.138-15.294 34.138-34.138v-68.276c0-18.844-15.294-34.138-34.138-34.138s-34.138 15.294-34.138 34.138v68.276c0 18.844 15.294 34.138 34.138 34.138zM426.655 72.518c18.844 0 34.138-15.277 34.138-34.104v-68.276c0-18.861-15.294-34.138-34.138-34.138s-34.138 15.277-34.138 34.138v68.276c0 18.844 15.294 34.104 34.138 34.104zM563.189 345.586c18.844 0 34.138-15.277 34.138-34.138v-68.242c0-18.861-15.294-34.138-34.138-34.138s-34.138 15.277-34.138 34.138v68.242c0 18.877 15.294 34.138 34.138 34.138zM563.189 140.794c18.844 0 34.138-15.277 34.138-34.138v-68.242c0-18.861-15.294-34.138-34.138-34.138s-34.138 15.277-34.138 34.138v68.242c0 18.877 15.294 34.138 34.138 34.138z" />
<glyph unicode="&#xe907;" glyph-name="Cloud-Drizzle-Sun-Alt" d="M949.967 504.547h-70.083c-19.343 0-35.042 15.681-35.042 35.042 0 19.343 15.699 35.007 35.042 35.007h70.083c19.343 0 35.024-15.681 35.024-35.007 0-19.377-15.664-35.042-35.024-35.042zM812.306 737.784c-13.683-13.683-35.864-13.683-49.549 0-13.683 13.666-13.683 35.864 0 49.53l49.549 49.549c13.683 13.683 35.864 13.683 49.549 0 13.683-13.666 13.683-35.864 0-49.549l-49.549-49.53zM760.673 464.337v0c30.644-36.549 49.162-83.574 49.162-135.014v0c0-91.58-58.677-169.25-140.411-198.072-0.472 23.408-7.604 46.605-21.41 66.702 53.508 19.745 91.72 71.046 91.72 131.371 0 77.406-62.741 140.166-140.149 140.166-28.050 0-54.017-8.446-75.918-22.62-21.586 93.141-104.669 162.768-204.38 162.768-116.092 0-210.215-94.121-210.215-210.232 0-24.599 4.45-48.112 12.211-70.083h0.263c17.083-48.008 50.723-88.146 94.525-112.922l-1.016-0.999c-17.17-17.17-27.963-38.265-32.798-60.359-65.72 36.917-114.778 99.624-134.068 174.278v0c-5.782 22.443-9.181 45.852-9.181 70.083 0 154.814 125.501 280.298 280.298 280.298 27.542 0 54.121-4.065 79.247-11.459 38.458 49.53 98.431 81.542 166.009 81.542 116.109 0 210.232-94.121 210.232-210.215-0.017-26.545-5.153-51.861-14.121-75.235zM564.547 679.702c-38.756 0-73.832-15.734-99.203-41.174 40.999-25.16 75.095-60.5 98.624-102.549 11.633 1.98 23.425 3.591 35.62 3.591 37.249 0 72.15-9.794 102.497-26.753v0c1.682 8.656 2.611 17.591 2.611 26.753 0 77.389-62.741 140.132-140.149 140.132zM564.547 819.868c-19.343 0-35.024 15.681-35.024 35.024v70.066c0 19.361 15.681 35.042 35.024 35.042s35.042-15.681 35.042-35.042v-70.066c0-19.343-15.681-35.024-35.042-35.024zM316.82 737.784l-49.549 49.53c-13.683 13.683-13.683 35.883 0 49.549 13.666 13.683 35.864 13.683 49.549 0l49.549-49.549c13.666-13.666 13.666-35.864 0-49.53-13.683-13.683-35.883-13.683-49.549 0zM301.77 203.016l37.161-37.161c20.534-20.534 20.534-53.789 0-74.323-20.517-20.534-53.789-20.534-74.323 0-20.517 20.534-20.517 53.789 0 74.323l37.161 37.161zM424.399 62.884l37.161-37.161c20.534-20.534 20.534-53.823 0-74.323-20.517-20.534-53.789-20.534-74.323 0-20.517 20.5-20.517 53.789 0 74.323l37.161 37.161zM547.025 203.016l37.161-37.161c20.534-20.534 20.534-53.789 0-74.323-20.517-20.534-53.789-20.534-74.306 0-20.534 20.534-20.534 53.789 0 74.323l37.144 37.161z" />
<glyph unicode="&#xe908;" glyph-name="Cloud-Fog" d="M977.449 168.708h-930.896c-25.696 0-46.551 20.855-46.551 46.551 0 25.719 20.855 46.551 46.551 46.551h930.896c25.696 0 46.551-20.832 46.551-46.551 0-25.673-20.832-46.551-46.551-46.551zM977.449 354.91h-930.896c-25.696 0-46.551 20.832-46.551 46.551 0 25.696 20.855 46.551 46.551 46.551h930.896c25.696 0 46.551-20.855 46.551-46.551 0-25.719-20.832-46.551-46.551-46.551zM744.718 634.168c-37.263 0-71.758-11.172-100.852-30.049-28.676 123.755-139.047 216.251-271.507 216.251-154.222 0-279.258-125.059-279.258-279.304h-93.101c0 205.636 166.721 372.382 372.36 372.382 139.745 0 261.359-77.088 325.041-190.951 15.454 2.63 31.119 4.771 47.319 4.771 121.543 0 224.652-77.786 263.034-186.202h-101.968c-32.213 55.629-92.194 93.101-161.066 93.101zM46.552 75.654h930.896c25.696 0 46.551-20.855 46.551-46.551 0-25.719-20.855-46.551-46.551-46.551h-930.896c-25.696 0-46.551 20.832-46.551 46.551 0 25.696 20.832 46.551 46.551 46.551z" />
<glyph unicode="&#xe909;" glyph-name="Cloud-Fog-Alt" d="M27.323 285.098c-6.098 15.035-11.010 30.607-15.083 46.55h1011.76c0-15.92-1.63-31.376-4.212-46.55h-992.465zM192.249 750.55c53.394 29.582 114.745 46.527 180.101 46.527 65.308 0 126.523-16.99 179.844-46.527h-359.947zM3.234 471.274c1.977 15.874 5.073 31.351 9.008 46.527h940.213c12.824-14.267 24.182-29.814 33.865-46.527h-983.085zM27.323 564.351c6.539 16.129 14.267 31.63 22.902 46.55h644.296c0.932-1.582 1.955-3.141 2.864-4.771 15.454 2.653 31.142 4.771 47.318 4.771 57.046 0 110.067-17.177 154.242-46.55h-871.622zM81.951 657.451c13.499 16.829 28.512 32.305 44.688 46.55h491.612c16.061-14.197 30.862-29.791 44.293-46.55h-580.593zM1019.765 378.198h-1016.531c-1.909 15.267-3.234 30.723-3.234 46.527h1007.757c5.282-14.965 9.333-30.514 12.010-46.527zM1007.755 238.548c-5.748-16.27-12.917-31.817-21.436-46.55h-904.368c-11.753 14.64-22.275 30.235-31.723 46.55h957.53zM126.639 145.449h825.793c-15.826-17.643-33.678-33.376-53.51-46.527h-706.673c-23.648 13.081-45.479 28.862-65.613 46.527z" />
<glyph unicode="&#xe90a;" glyph-name="Cloud-Fog-Moon" d="M932.951 521.737v0c13.444-19.175 24.012-40.399 32.011-62.842h-95.178c-30.157 52.056-86.332 87.139-150.809 87.139-34.864 0-67.158-10.459-94.416-28.11-26.823 115.836-130.174 202.43-254.182 202.43-144.38 0-261.438-117.055-261.438-261.459v0h-87.16c0 192.514 156.082 348.598 348.598 348.598 43.646 0 85.285-8.193 123.767-22.837v0c35.626 102.043 132.462 175.344 246.619 175.344 16.472 0 32.511-1.7 48.113-4.598-2.877-12.551-4.532-25.561-4.532-38.982 0-96.268 78.053-174.278 174.299-174.278 13.423 0 26.41 1.656 38.96 4.511 2.92-15.623 4.62-31.638 4.62-48.091 0-68.29-26.41-130.261-69.271-176.827zM701.823 868.331c-63.191-14.447-112.763-63.408-129.085-125.816v0c41.75-29.895 76.723-68.705 101.934-113.787 14.468 2.483 29.155 4.467 44.299 4.467 57.069 0 109.669-18.479 152.66-49.485v0c18.696 21.354 32.357 47.264 38.894 75.874-105.748 19.72-189.029 102.979-208.706 208.748zM65.358 371.756h871.514c24.056 0 43.559-19.524 43.559-43.58s-19.524-43.58-43.559-43.58h-871.514c-24.056 0-43.58 19.524-43.58 43.58s19.524 43.58 43.58 43.58zM65.358 197.436h871.514c24.056 0 43.559-19.503 43.559-43.559s-19.524-43.58-43.559-43.58h-871.514c-24.056 0-43.58 19.524-43.58 43.58s19.524 43.559 43.58 43.559zM65.358 23.16h871.514c24.056 0 43.559-19.524 43.559-43.58s-19.524-43.58-43.559-43.58h-871.514c-24.056 0-43.58 19.524-43.58 43.58s19.524 43.58 43.58 43.58z" />
<glyph unicode="&#xe90b;" glyph-name="Cloud-Fog-Moon-Alt" d="M892.389 482.128c16.978 21.096 29.655 45.813 35.867 73.079-110.471 20.574-197.454 107.557-218.005 218.028-58.239-13.313-105.281-54.712-127.313-109.037h-394.954c52.185 28.926 112.2 45.495 176.106 45.495 45.562 0 89.077-8.557 129.269-23.852 37.21 106.579 138.328 183.138 257.582 183.138 17.182 0 33.934-1.776 50.229-4.803-2.98-13.108-4.712-26.697-4.712-40.714 0-100.547 81.498-182.025 182.025-182.025 14.020 0 27.606 1.729 40.714 4.712 3.027-16.318 4.803-33.045 4.803-50.229 0-40.714-9.217-79.155-25.239-113.793h-106.375zM1001.244 254.585c0-15.567-1.594-30.68-4.096-45.517h-970.43c-5.963 14.702-10.766 29.929-14.771 45.517h989.297zM985.382 163.551c-5.621-15.909-12.631-31.111-20.938-45.517h-884.334c-11.493 14.315-21.756 29.564-30.998 45.517h936.268zM931.33 72.516c-15.475-17.251-32.931-32.636-52.323-45.495h-691.021c-23.123 12.791-44.493 28.197-64.133 45.495h807.477zM3.163 300.103c-1.867 14.929-3.163 30.042-3.163 45.495h985.086c5.212-14.702 9.49-29.813 12.153-45.495h-994.076zM951.653 411.233c4.461-6.394 8.057-13.382 11.993-20.118h-960.485c1.934 15.522 4.961 30.655 8.786 45.495h960.189c-6.394-8.786-13.108-17.387-20.483-25.377zM878.347 482.128h-851.63c6.394 15.771 13.951 30.929 22.394 45.517h629.846c0.911-1.594 2.071-3.049 2.958-4.665 15.111 2.594 30.429 4.665 46.269 4.665 55.599 0 107.035-16.956 150.163-45.517zM123.831 618.68h480.459c15.68-13.815 29.904-29.2 43.037-45.517h-567.215c13.222 16.456 27.902 31.589 43.719 45.517z" />
<glyph unicode="&#xe90c;" glyph-name="Cloud-Fog-Sun" d="M969.146 484.585h-73.134c-20.19 0-36.576 16.368-36.576 36.576 0 20.19 16.386 36.576 36.576 36.576h73.134c20.19 0 36.576-16.386 36.576-36.576 0-20.226-16.368-36.576-36.576-36.576zM825.476 728.035c-14.282-14.282-37.435-14.282-51.719 0s-14.282 37.435 0 51.719l51.719 51.719c14.282 14.282 37.435 14.282 51.719 0 14.264-14.282 14.264-37.435 0-51.719l-51.719-51.719zM771.562 442.614v0c16.679-19.897 29.809-42.795 38.642-67.757h-80.23c-25.31 43.689-72.439 73.152-126.553 73.152-29.279 0-56.382-8.778-79.26-23.61-22.512 97.219-109.235 169.914-213.311 169.914-121.194 0-219.438-98.262-219.438-219.456h-73.134c0 161.593 130.979 292.59 292.572 292.59 28.748 0 56.491-4.243 82.718-11.978 40.143 51.719 102.741 85.112 173.279 85.112 121.194 0 219.438-98.225 219.438-219.42 0.018-27.725-5.34-54.114-14.721-78.547zM566.865 667.428c-40.453 0-77.085-16.423-103.547-42.995 42.795-26.243 78.363-63.149 102.943-107.040 12.143 2.066 24.451 3.749 37.18 3.749 38.862 0 75.309-10.223 106.985-27.925v0c1.756 9.035 2.725 18.361 2.725 27.925 0 80.796-65.489 146.286-146.286 146.286zM566.865 813.714c-20.19 0-36.576 16.368-36.576 36.576v73.134c0 20.19 16.386 36.576 36.576 36.576s36.576-16.386 36.576-36.576v-73.134c0-20.208-16.368-36.576-36.576-36.576zM308.254 728.035l-51.699 51.719c-14.282 14.282-14.282 37.435 0 51.719 14.264 14.282 37.435 14.282 51.699 0l51.719-51.719c14.282-14.282 14.282-37.435 0-51.719-14.264-14.282-37.417-14.282-51.719 0zM54.874 301.723h731.429c20.19 0 36.558-16.386 36.558-36.576 0-20.208-16.386-36.576-36.558-36.576h-731.429c-20.19 0-36.576 16.368-36.576 36.576 0 20.19 16.368 36.576 36.576 36.576zM54.874 155.419h731.429c20.19 0 36.558-16.368 36.558-36.576 0-20.19-16.386-36.576-36.558-36.576h-731.429c-20.19 0-36.576 16.386-36.576 36.576 0 20.226 16.368 36.576 36.576 36.576zM54.874 9.152h731.429c20.19 0 36.558-16.386 36.558-36.576 0-20.208-16.386-36.576-36.558-36.576h-731.429c-20.19 0-36.576 16.368-36.576 36.576 0 20.19 16.368 36.576 36.576 36.576z" />
<glyph unicode="&#xe90d;" glyph-name="Cloud-Fog-Sun-Alt" d="M986.070 391.096h-75.86c-20.938 0-37.93 16.993-37.93 37.93s16.993 37.93 37.93 37.93h75.86c20.938 0 37.93-16.993 37.93-37.93 0-20.919-16.993-37.93-37.93-37.93zM837.062 643.578c-14.811-14.811-38.821-14.811-53.634 0s-14.811 38.821 0 53.634l53.634 53.634c14.811 14.811 38.821 14.811 53.634 0s14.811-38.821 0-53.634l-53.634-53.634zM793.024 391.096h-770.761c5.328 13.142 11.625 25.773 18.661 37.93h524.802c0.778-1.328 1.784-2.541 2.523-3.887 12.592 2.161 25.357 3.887 38.556 3.887 40.301 0 78.118-10.601 110.946-28.959v0c1.821 9.37 2.845 19.078 2.845 28.959 0 83.787-67.934 151.702-151.721 151.702-38.404 0-73.377-14.394-100.078-37.912h-312.146c43.507 24.105 93.498 37.912 146.752 37.912 29.813 0 58.603-4.4 85.78-12.422 41.629 53.634 106.545 88.264 179.694 88.264 125.681 0 227.563-101.861 227.563-227.544 0-12.953-1.271-25.584-3.413-37.93zM568.877 732.429c-20.938 0-37.912 16.993-37.912 37.93v75.842c0 20.938 16.993 37.93 37.912 37.93 20.956 0 37.93-16.993 37.93-37.93v-75.842c0-20.938-16.974-37.93-37.93-37.93zM300.691 643.578l-53.613 53.634c-14.811 14.811-14.811 38.821 0 53.634 14.792 14.811 38.821 14.811 53.613 0l53.634-53.634c14.811-14.811 14.811-38.821 0-53.634-14.792-14.811-38.803-14.811-53.634 0zM103.189 504.887h399.802c13.2-11.588 25.357-24.238 36.374-37.93h-472.592c10.999 13.713 23.232 26.323 36.413 37.93zM831.088 239.413h-828.452c-1.556 12.44-2.635 25.034-2.635 37.93h821.246c4.325-12.214 7.662-24.882 9.844-37.93zM103.189 49.762h672.881c-12.896-14.376-27.442-27.196-43.601-37.893h-575.818c-19.269 10.64-37.076 23.497-53.463 37.893zM40.927 125.622h780.204c-4.665-13.257-10.525-25.925-17.448-37.93h-736.907c-9.558 11.929-18.15 24.636-25.849 37.93zM2.635 315.273c1.611 12.935 4.134 25.527 7.34 37.893h773.092c-0.663-1.859-1.176-3.736-1.897-5.595v0c8.44-10.033 16.026-20.899 22.645-32.298h-801.181zM9.957 201.482h824.413c0-12.972-1.346-25.566-3.432-37.93h-808.672c-4.969 12.27-8.971 24.977-12.309 37.93z" />
<glyph unicode="&#xe90e;" glyph-name="Cloud-Hail" d="M837.804 231.543v101.966c55.603 32.189 93.077 92.193 93.077 161.063 0 102.805-83.346 186.176-186.154 186.176-37.263 0-71.779-11.171-100.873-30.048-28.65 123.752-139.045 216.225-271.503 216.225-154.219 0-279.253-125.032-279.253-279.253 0-82.626 36.076-156.594 93.077-207.728v-114.42c-111.16 64.424-186.154 184.383-186.154 322.148 0 205.633 166.695 372.328 372.328 372.328 139.743 0 261.354-77.064 325.058-190.925 15.431 2.63 31.096 4.771 47.318 4.771 154.219 0 279.253-125.032 279.253-279.276 0-121.566-77.785-224.673-186.176-263.029zM325.824 215.299c-25.696 0-23.275 20.831-23.275 46.504v186.199c0 25.696-2.421 46.55 23.275 46.55s23.275-20.854 23.275-46.55v-186.199c0-25.673 2.421-46.504-23.275-46.504zM325.824 122.199c25.696 0 46.527-20.854 46.527-46.55 0-25.718-20.831-46.55-46.527-46.55s-46.55 20.831-46.55 46.55c0 25.696 20.831 46.55 46.55 46.55zM512.001 122.199c-25.696 0-23.275 20.831-23.275 46.55v186.154c0 25.718-2.421 46.55 23.275 46.55s23.275-20.831 23.275-46.55v-186.154c0-25.718 2.421-46.55-23.275-46.55zM512.001 29.1c25.696 0 46.527-20.831 46.527-46.55 0-25.696-20.831-46.55-46.527-46.55s-46.55 20.854-46.55 46.55c0 25.741 20.831 46.55 46.55 46.55zM698.177 215.299c-25.696 0-23.275 20.831-23.275 46.504v186.199c0 25.696-2.421 46.55 23.275 46.55s23.275-20.854 23.275-46.55v-186.199c0-25.673 2.421-46.504-23.275-46.504zM698.177 122.199c25.696 0 46.55-20.854 46.55-46.55 0-25.718-20.854-46.55-46.55-46.55s-46.55 20.831-46.55 46.55c0 25.696 20.854 46.55 46.55 46.55z" />
<glyph unicode="&#xe90f;" glyph-name="Cloud-Hail-Alt" d="M980.42 121.195c-24.056 0-43.559 19.503-43.559 43.58 0 24.056 19.503 43.58 43.559 43.58s43.58-19.524 43.58-43.58c0-24.078-19.503-43.58-43.58-43.58zM784.333 267.144v95.461c52.056 30.136 87.16 86.311 87.16 150.787 0 96.246-78.029 174.299-174.299 174.299-34.885 0-67.179-10.459-94.438-28.131-26.823 115.857-130.153 202.43-254.158 202.43-144.402 0-261.459-117.055-261.459-261.438 0-77.355 33.796-146.604 87.16-194.476v-107.12c-104.090 60.314-174.299 172.62-174.299 301.596 0 192.514 156.061 348.575 348.598 348.575 130.827 0 244.68-72.148 304.299-178.744 14.468 2.462 29.134 4.467 44.299 4.467 144.38 0 261.438-117.055 261.438-261.459 0-113.81-72.822-210.34-174.299-246.249zM65.37 99.405c24.056 0 43.559-19.503 43.559-43.58 0-24.056-19.503-43.58-43.559-43.58s-43.58 19.524-43.58 43.58c0 24.099 19.503 43.58 43.58 43.58zM283.226 469.791c0 24.056-2.266 43.58 21.79 43.58s21.79-19.524 21.79-43.58v-522.918h-43.58c0 48.134-39.005 87.16-87.139 87.16v43.58c33.621 0 63.998-13.074 87.139-33.928v426.104zM479.315 164.775c-24.056 0-21.79 19.503-21.79 43.58v174.278c0 24.078-2.266 43.58 21.79 43.58s21.79-19.503 21.79-43.58v-174.278c0-24.078 2.266-43.58-21.79-43.58zM479.315 77.615c24.056 0 43.58-19.503 43.58-43.58 0-24.056-19.524-43.58-43.58-43.58s-43.58 19.524-43.58 43.58c0 24.099 19.524 43.58 43.58 43.58zM653.614 513.371c24.056 0 21.79-19.524 21.79-43.58v-392.57c39.724 53.037 102.915 87.552 174.299 87.552v-43.58c-96.268 0-174.299-78.053-174.299-174.32h-43.58c0 5.95 0.436 11.789 0.894 17.585-1.177 7.278-0.894 16.213-0.894 25.995v479.338c0 24.056-2.266 43.58 21.79 43.58z" />
<glyph unicode="&#xe910;" glyph-name="Cloud-Hail-Moon" d="M899.909 556.091v0c27.49-39.136 43.774-86.746 43.774-138.192 0-104.879-67.127-193.812-160.64-226.924v87.97c47.971 27.771 80.32 79.538 80.32 138.954 0 88.693-71.906 160.621-160.621 160.621-32.148 0-61.907-9.638-87.007-25.924-24.739 106.765-119.959 186.544-234.235 186.544-133.050 0-240.921-107.869-240.921-240.921 0-71.284 31.124-135.099 80.301-179.214v-98.714c-95.921 55.581-160.621 159.074-160.621 277.928 0 177.406 143.833 321.22 321.242 321.22 40.199 0 78.593-7.53 114.054-21.023v0c32.83 94.015 122.047 161.584 227.265 161.584 15.16 0 29.94-1.567 44.337-4.257-2.651-11.546-4.177-23.555-4.177-35.903 0-88.713 71.906-160.621 160.621-160.621 12.35 0 24.337 1.526 35.903 4.177 2.671-14.397 4.238-29.177 4.238-44.317 0-62.972-24.318-120.078-63.835-162.99zM686.921 875.505c-58.232-13.332-103.895-58.432-118.955-115.962v0c38.493-27.549 70.702-63.291 93.955-104.838 13.332 2.269 26.847 4.116 40.823 4.116 52.569 0 101.043-17.029 140.66-45.602v0c17.229 19.678 29.818 43.533 35.864 69.919-97.469 18.152-174.194 94.859-192.347 192.366zM341.342 176.961c-22.168 0-20.060 17.972-20.060 40.121v160.64c0 22.168-2.108 40.16 20.060 40.16s20.080-17.992 20.080-40.16v-160.64c0-22.149 2.088-40.121-20.080-40.121zM341.342 96.641c22.168 0 40.16-17.992 40.16-40.16 0-22.188-17.992-40.16-40.16-40.16s-40.14 17.972-40.14 40.16c0 22.168 17.952 40.16 40.14 40.16zM501.963 96.641c-22.168 0-20.080 17.972-20.080 40.16v160.601c0 22.188-2.088 40.16 20.080 40.16s20.080-17.972 20.080-40.16v-160.601c0-22.188 2.088-40.16-20.080-40.16zM501.963 16.32c22.168 0 40.16-17.972 40.16-40.16 0-22.168-17.992-40.16-40.16-40.16s-40.14 17.992-40.14 40.16c0 22.208 17.972 40.16 40.14 40.16zM662.584 176.961c-22.168 0-20.080 17.972-20.080 40.121v160.64c0 22.168-2.088 40.16 20.080 40.16s20.080-17.992 20.080-40.16v-160.64c0-22.149 2.108-40.121-20.080-40.121zM662.584 96.641c22.168 0 40.16-17.992 40.16-40.16 0-22.188-17.992-40.16-40.16-40.16s-40.14 17.972-40.14 40.16c0 22.168 17.972 40.16 40.14 40.16z" />
<glyph unicode="&#xe911;" glyph-name="Cloud-Hail-Moon-Alt" d="M917.023 93.433c-20.8 0-37.663 16.863-37.663 37.681 0 20.8 16.88 37.646 37.663 37.646 20.818 0 37.681-16.863 37.681-37.646 0-20.818-16.846-37.681-37.681-37.681zM857.141 562.174c25.792-36.721 41.075-81.352 41.075-129.642 0-98.406-62.985-181.85-150.714-212.957v82.542c45.012 26.092 75.362 74.667 75.362 130.42 0 83.203-67.494 150.689-150.728 150.689-30.146 0-58.087-9.044-81.636-24.323-23.193 100.158-112.557 175.051-219.781 175.051-124.838 0-226.054-101.234-226.054-226.089 0-26.45 4.747-51.774 13.133-75.328v0c12.817-35.986 34.326-67.826 62.227-92.807v-92.623c-68.958 39.96-120.449 106.414-140.873 185.43-6.256 24.097-9.855 49.269-9.855 75.328 0 166.457 134.957 301.433 301.416 301.433 37.719 0 73.742-7.083 107.016-19.741 30.804 88.212 114.516 151.613 213.24 151.613 14.242 0 28.093-1.469 41.602-3.984-2.488-10.854-3.92-22.119-3.92-33.706 0-83.237 67.494-150.689 150.703-150.689 11.606 0 22.836 1.411 33.695 3.899 2.504-13.508 3.973-27.376 3.973-41.584 0-59.048-22.819-112.631-59.891-152.93zM657.303 861.894c-54.635-12.507-97.504-54.826-111.631-108.812v0c36.119-25.849 66.357-59.38 88.158-98.348 12.507 2.127 25.207 3.862 38.304 3.862 49.326 0 94.826-15.979 131.997-42.786 16.164 18.463 27.978 40.838 33.631 65.605-91.438 17.014-163.444 89.003-180.458 180.476zM634.449 1110.704v0 0 0zM125.835 74.593c20.8 0 37.681-16.88 37.681-37.681 0-20.818-16.88-37.681-37.681-37.681s-37.681 16.863-37.681 37.681c0 20.8 16.863 37.681 37.681 37.681zM314.223 394.847c0 20.8-1.961 37.681 18.824 37.681v0c20.818 0 18.841-16.88 18.841-37.681v-452.143h-37.663c0 41.618-33.726 75.362-75.344 75.362v37.681c29.070 0 55.318-11.306 75.344-29.337v368.432zM483.76 131.113c-20.8 0-18.841 16.863-18.841 37.646v150.728c0 20.8-1.961 37.681 18.841 37.681s18.841-16.88 18.841-37.681v-150.728c0-20.783 1.943-37.646-18.841-37.646zM483.76 55.752c20.8 0 37.681-16.88 37.681-37.681s-16.88-37.681-37.681-37.681c-20.8 0-37.681 16.88-37.681 37.681s16.863 37.681 37.681 37.681zM634.449 432.528v0c20.818 0 18.841-16.88 18.841-37.681v-339.437c34.367 45.857 88.986 75.702 150.728 75.702v-37.681c-83.237 0-150.728-67.494-150.728-150.728h-37.663c0 5.141 0.359 10.154 0.752 15.205-1 6.292-0.752 14.018-0.752 22.477v414.463c0 20.8-1.961 37.681 18.824 37.681z" />
<glyph unicode="&#xe912;" glyph-name="Cloud-Hail-Sun" d="M938.676 516.283h-68.275c-18.844 0-34.137 15.277-34.137 34.137 0 18.844 15.293 34.137 34.137 34.137h68.275c18.844 0 34.121-15.293 34.121-34.137 0-18.877-15.26-34.137-34.121-34.137zM804.569 743.501c-13.313-13.33-34.939-13.33-48.271 0-13.313 13.313-13.313 34.939 0 48.271l48.271 48.271c13.33 13.313 34.957 13.313 48.271 0 13.33-13.33 13.33-34.957 0-48.271l-48.271-48.271zM754.25 477.11v0c29.854-35.571 47.894-81.418 47.894-131.497 0-89.15-57.043-164.746-136.533-192.893v74.777c40.776 23.606 68.258 67.61 68.258 118.116 0 75.392-61.122 136.533-136.533 136.533-27.31 0-52.623-8.193-73.959-22.036-21.029 90.754-101.969 158.569-199.107 158.569-113.097 0-204.791-91.692-204.791-204.791 0-60.594 26.456-114.838 68.258-152.338v-83.91c-81.52 47.246-136.533 135.218-136.533 236.248 0 150.801 122.263 273.047 273.065 273.047 26.831 0 52.725-3.942 77.219-11.163 37.449 48.252 95.875 79.438 161.726 79.438 113.097 0 204.791-91.676 204.791-204.791 0-25.876-5.001-50.523-13.757-73.31zM563.217 686.934c-37.773 0-71.945-15.328-96.66-40.111 39.958-24.493 73.157-58.92 96.080-99.92 11.333 1.929 22.821 3.499 34.701 3.499 36.288 0 70.288-9.541 99.852-26.063v0c1.639 8.433 2.544 17.137 2.544 26.063 0 75.427-61.122 136.533-136.516 136.533zM563.217 823.484c-18.844 0-34.137 15.277-34.137 34.137v68.258c0 18.844 15.293 34.121 34.137 34.121s34.121-15.277 34.121-34.121v-68.258c0-18.877-15.277-34.137-34.121-34.137zM321.849 743.501l-48.271 48.271c-13.33 13.313-13.33 34.939 0 48.271 13.33 13.313 34.939 13.313 48.271 0l48.271-48.271c13.313-13.33 13.313-34.957 0-48.271-13.33-13.33-34.922-13.33-48.271 0zM290.152 140.824c-18.844 0-17.069 15.277-17.069 34.104v136.549c0 18.844-1.775 34.137 17.069 34.137s17.052-15.293 17.052-34.137v-136.549c0-18.827 1.775-34.104-17.052-34.104zM290.152 72.549c18.844 0 34.121-15.293 34.121-34.137 0-18.861-15.293-34.137-34.121-34.137-18.844 0-34.137 15.277-34.137 34.137 0 18.844 15.277 34.137 34.137 34.137zM426.685 72.549c-18.844 0-17.069 15.277-17.069 34.137v136.516c0 18.861-1.775 34.137 17.069 34.137s17.052-15.277 17.052-34.137v-136.516c0-18.861 1.775-34.137-17.052-34.137zM426.685 4.274c18.844 0 34.121-15.277 34.121-34.137 0-18.844-15.293-34.137-34.121-34.137-18.844 0-34.137 15.293-34.137 34.137 0 18.877 15.277 34.137 34.137 34.137zM563.217 140.824c-18.844 0-17.069 15.277-17.069 34.104v136.549c0 18.844-1.775 34.137 17.069 34.137s17.052-15.293 17.052-34.137v-136.549c0-18.827 1.792-34.104-17.052-34.104zM563.217 72.549c18.844 0 34.121-15.293 34.121-34.137 0-18.861-15.293-34.137-34.121-34.137-18.844 0-34.137 15.277-34.137 34.137 0 18.844 15.293 34.137 34.137 34.137z" />
<glyph unicode="&#xe913;" glyph-name="Cloud-Hail-Sun-Alt" d="M924.901 530.582h-66.072c-18.236 0-33.020 14.784-33.020 33.036 0 18.236 14.8 33.036 33.020 33.036h66.072c18.236 0 33.036-14.8 33.036-33.036 0-18.252-14.784-33.036-33.036-33.036zM795.121 750.47c-12.884-12.9-33.812-12.9-46.713 0-12.884 12.9-12.884 33.812 0 46.713l46.713 46.713c12.9 12.9 33.83 12.9 46.713 0 12.9-12.9 12.9-33.812 0-46.713l-46.713-46.713zM746.425 492.673v0c28.906-34.423 46.349-78.791 46.349-127.238 0-86.274-55.203-159.431-132.128-186.703v72.365c39.461 22.877 66.072 65.461 66.072 114.337 0 72.944-59.168 132.112-132.144 132.112-26.429 0-50.909-7.928-71.573-21.325-20.333 87.81-98.679 153.469-192.683 153.469-109.448 0-198.183-88.752-198.183-198.216 0-23.191 4.162-45.392 11.513-66.040v0c11.232-31.549 30.095-59.465 54.559-81.367v-81.203c-60.455 35.035-105.599 93.294-123.504 162.57-5.484 21.127-8.64 43.195-8.64 66.040 0 145.936 118.318 264.271 264.255 264.271 25.984 0 51.041-3.833 74.728-10.819 36.257 46.713 92.797 76.875 156.508 76.875 109.448 0 198.2-88.718 198.2-198.183 0-25.025-4.839-48.876-13.331-70.945zM561.556 695.744c-36.538 0-69.624-14.834-93.541-38.833 38.669-23.703 70.797-57.019 92.98-96.68 10.967 1.866 22.101 3.386 33.581 3.386 35.117 0 68.038-9.233 96.63-25.222v0c1.602 8.161 2.478 16.584 2.478 25.222 0 72.976-59.168 132.128-132.128 132.128zM561.556 827.872c-18.236 0-33.036 14.784-33.036 33.036v66.056c0 18.236 14.8 33.036 33.036 33.036s33.020-14.8 33.020-33.036v-66.056c0-18.252-14.784-33.036-33.020-33.036zM327.975 750.47l-46.713 46.713c-12.884 12.9-12.884 33.812 0 46.713 12.9 12.9 33.83 12.9 46.713 0l46.713-46.713c12.9-12.9 12.9-33.812 0-46.713-12.884-12.9-33.796-12.9-46.713 0zM115.62 51.627c18.252 0 33.036-14.8 33.036-33.036 0-18.252-14.784-33.036-33.036-33.036-18.236 0-33.036 14.784-33.036 33.036 0 18.236 14.8 33.036 33.036 33.036zM280.782 332.399c0 18.236-1.718 33.036 16.518 33.036v0c18.236 0 16.518-14.8 16.518-33.036v-396.399h-33.036c0 36.488-29.568 66.072-66.056 66.072v33.036c25.487 0 48.497-9.911 66.056-25.719v323.009zM429.428 101.181c-18.236 0-16.518 14.784-16.518 33.004v132.144c0 18.236-1.718 33.036 16.518 33.036s16.518-14.8 16.518-33.036v-132.144c0-18.22 1.718-33.004-16.518-33.004zM429.428 35.109c18.236 0 33.036-14.8 33.036-33.036s-14.8-33.036-33.036-33.036-33.036 14.8-33.036 33.036 14.784 33.036 33.036 33.036zM561.556 365.435v0c18.236 0 16.518-14.8 16.518-33.036v-297.588c30.113 40.204 78.015 66.369 132.128 66.369v-33.036c-72.976 0-132.128-59.168-132.128-132.144h-33.036c0 4.51 0.331 8.903 0.661 13.331-0.876 5.517-0.661 12.29-0.661 19.705v363.363c0 18.236-1.718 33.036 16.518 33.036zM809.293 134.183c18.236 0 33.020-14.784 33.020-33.004 0-18.252-14.784-33.036-33.020-33.036s-33.036 14.784-33.036 33.036c0 18.236 14.8 33.004 33.036 33.004z" />
<glyph unicode="&#xe914;" glyph-name="Cloud-Lightning" d="M744.693 215.252c-6.516 0-15.106 0-24.718 0l83.439 102.688c74.036 24.602 127.475 94.333 127.475 176.608 0 102.827-83.346 186.152-186.175 186.152-37.262 0-71.756-11.171-100.85-30.025-28.675 123.729-139.044 216.223-271.501 216.223-154.218 0-279.251-125.031-279.251-279.297 0-126.754 84.535-233.632 200.256-267.753l-31.398-87.908c-151.752 47.038-261.957 188.48-261.957 355.685 0 205.631 166.717 372.373 372.35 372.373 139.742 0 261.352-77.086 325.033-190.946 15.454 2.653 31.119 4.771 47.318 4.771 154.241 0 279.274-125.009 279.274-279.251s-125.056-279.32-279.297-279.32zM465.441 541.099h232.702l-139.626-232.747h162.9l-302.526-372.35 83.789 279.251h-153.613l116.374 325.846z" />
<glyph unicode="&#xe915;" glyph-name="Cloud-Lightning-Moon" d="M899.959 556.107v0c20.162-28.735 34.118-62.052 40.223-98.056h-0.080c2.189-13.092 3.614-26.447 3.614-40.162 0-133.077-107.875-240.954-240.954-240.954-5.603 0-13.014 0-21.326 0l71.971 88.598c63.877 21.226 110.005 81.348 110.005 152.356 0 13.876-1.969 27.29-5.281 40.162v0c-17.873 69.219-80.546 120.467-155.368 120.467-32.13 0-61.891-9.658-87.012-25.925-24.719 106.752-119.965 186.555-234.248 186.555-133.057 0-240.935-107.875-240.935-240.954 0-13.716 1.406-27.070 3.614-40.143h-0.28c15.341-91.33 82.092-165.128 169.445-190.871l-27.11-75.867c-118.54 36.768-207.458 140.388-223.222 266.738v0c-1.647 13.172-2.791 26.508-2.791 40.143 0 177.438 143.841 321.259 321.259 321.259 40.223 0 78.597-7.53 114.061-21.046v0c32.832 94.040 122.073 161.593 227.278 161.593 15.18 0 29.961-1.567 44.339-4.238-2.651-11.566-4.177-23.556-4.177-35.905 0-88.718 71.931-160.63 160.63-160.63 12.37 0 24.339 1.526 35.905 4.157 2.691-14.378 4.257-29.157 4.257-44.32 0.020-62.914-24.319-120.046-63.818-162.959zM686.958 875.519c-58.235-13.314-103.92-58.416-118.961-115.949v0c38.476-27.551 70.706-63.316 93.94-104.863 13.333 2.289 26.868 4.116 40.825 4.116 52.593 0 101.069-17.030 140.688-45.604v0c17.23 19.66 29.82 43.535 35.844 69.923-97.454 18.193-174.204 94.903-192.338 192.377zM461.827 458.051h200.792l-120.467-200.792h140.549l-261.035-321.259 72.292 240.935h-132.516l100.386 281.117z" />
<glyph unicode="&#xe916;" glyph-name="Cloud-Lightning-Sun" d="M938.649 516.285h-68.258c-18.844 0-34.137 15.277-34.137 34.137 0 18.844 15.293 34.137 34.137 34.137h68.258c18.844 0 34.137-15.293 34.137-34.137 0-18.877-15.277-34.137-34.137-34.137zM804.558 743.502c-13.33-13.33-34.939-13.33-48.271 0s-13.33 34.939 0 48.271l48.271 48.271c13.33 13.33 34.939 13.33 48.271 0 13.313-13.33 13.313-34.939 0-48.271l-48.271-48.271zM754.239 477.112v0c22.906-27.31 38.763-60.679 44.942-97.36h-0.137c1.86-11.128 3.072-22.496 3.072-34.137 0-113.113-91.692-204.824-204.79-204.824-4.779 0-11.078 0-18.127 0l61.174 75.307c54.295 18.042 93.502 69.18 93.502 129.517 0 11.795-1.674 23.196-4.489 34.137v0c-15.173 58.853-68.463 102.395-132.044 102.395-27.326 0-52.623-8.193-73.975-22.036-21.011 90.737-101.952 158.585-199.088 158.585-113.113 0-204.807-91.711-204.807-204.824 0-11.641 1.195-23.009 3.089-34.121h-0.238c13.040-77.646 69.776-140.356 144.025-162.254l-23.043-64.467c-100.757 31.235-176.319 119.31-189.735 226.723v0c-1.4 11.215-2.355 22.548-2.355 34.121 0 150.819 122.246 273.082 273.065 273.082 26.831 0 52.724-3.96 77.202-11.18 37.466 48.271 95.891 79.438 161.725 79.438 113.113 0 204.807-91.676 204.807-204.79-0.017-25.876-5.019-50.506-13.775-73.31zM563.19 686.936c-37.756 0-71.945-15.328-96.643-40.128 39.941-24.493 73.138-58.903 96.079-99.903 11.333 1.929 22.821 3.499 34.701 3.499 36.271 0 70.288-9.541 99.852-26.063v0c1.639 8.433 2.544 17.137 2.544 26.063 0 75.409-61.122 136.532-136.532 136.532zM563.19 823.468c-18.844 0-34.137 15.293-34.137 34.137v68.258c0 18.844 15.293 34.137 34.137 34.137s34.137-15.293 34.137-34.137v-68.258c0-18.844-15.277-34.137-34.137-34.137zM321.823 743.502l-48.252 48.271c-13.33 13.33-13.33 34.939 0 48.271 13.313 13.33 34.939 13.33 48.252 0l48.271-48.271c13.33-13.33 13.33-34.939 0-48.271-13.313-13.33-34.922-13.33-48.271 0zM392.521 379.752h170.67l-102.395-170.686h119.464l-221.859-273.065 61.447 204.79h-112.653l85.327 238.961z" />
<glyph unicode="&#xe917;" glyph-name="Cloud-Moon" d="M951.653 433.957v0c31.133-44.357 49.591-98.271 49.591-156.647 0-150.775-122.236-273.058-273.058-273.058-63.155 0-291.332 0-364.093 0-201.095 0-364.093 162.997-364.093 364.093s162.997 364.093 364.093 364.093c45.562 0 89.076-8.534 129.268-23.828v0c37.209 106.556 138.327 183.138 257.581 183.138 17.182 0 33.933-1.776 50.229-4.825-2.98-13.086-4.712-26.697-4.712-40.692 0-100.547 81.497-182.046 182.024-182.046 14.020 0 27.606 1.729 40.714 4.734 3.027-16.318 4.803-33.069 4.803-50.251-0.022-71.303-27.584-136.074-72.35-184.709zM91.015 368.344c0-150.82 122.236-273.058 273.058-273.058 82.295 0 295.383 0 364.093 0 100.547 0 182.046 81.522 182.046 182.024 0 100.547-81.497 182.069-182.046 182.069-36.414 0-70.165-10.97-98.635-29.382-28.015 120.985-135.938 211.428-265.455 211.428-150.82 0-273.058-122.258-273.058-273.081zM535.923 689.149c0.022 0 0.044 0 0.044 0s-0.022 0-0.044 0zM710.23 796.001c-66-15.111-117.776-66.227-134.844-131.431v0c43.65-31.224 80.179-71.734 106.51-118.8 15.111 2.571 30.428 4.665 46.268 4.665 59.581 0 114.544-19.345 159.423-51.685v0c19.527 22.281 33.796 49.34 40.648 79.246-110.448 20.574-197.431 107.49-218.004 218.004z" />
<glyph unicode="&#xe918;" glyph-name="Cloud-Rain" d="M837.815 231.545v101.966c55.603 32.189 93.099 92.192 93.099 161.062 0 102.805-83.371 186.176-186.199 186.176-37.24 0-71.734-11.171-100.85-30.048-28.65 123.752-139.044 216.224-271.502 216.224-154.219 0-279.253-125.032-279.253-279.253 0-82.626 36.099-156.594 93.099-207.728v-114.419c-111.183 64.424-186.199 184.383-186.199 322.147 0 205.632 166.717 372.327 372.352 372.327 139.742 0 261.353-77.064 325.034-190.924 15.454 2.63 31.141 4.771 47.318 4.771 154.241 0 279.275-125.032 279.275-279.275 0-121.566-77.762-224.673-186.176-263.028zM325.839 494.551c25.696 0 46.527-20.854 46.527-46.55v-372.352c0-25.718-20.831-46.55-46.527-46.55s-46.55 20.831-46.55 46.55v372.352c0 25.696 20.854 46.55 46.55 46.55zM512.015 401.452c25.696 0 46.55-20.831 46.55-46.55v-372.352c0-25.696-20.854-46.55-46.55-46.55s-46.55 20.854-46.55 46.55v372.352c0 25.741 20.854 46.55 46.55 46.55zM698.191 494.551c25.696 0 46.527-20.854 46.527-46.55v-372.352c0-25.718-20.831-46.55-46.527-46.55s-46.55 20.831-46.55 46.55v372.352c0 25.696 20.854 46.55 46.55 46.55z" />
<glyph unicode="&#xe919;" glyph-name="Cloud-Rain-Alt" d="M744.754 133.808c-6.192 0-14.291 0-23.276 0 0 31.934-7.426 63.822-21.948 93.103 18.084 0 33.773 0 45.224 0 102.832 0 186.184 83.327 186.184 186.161s-83.35 186.184-186.184 186.184c-37.241 0-71.76-11.195-100.877-30.027-28.652 123.735-139.028 216.208-271.488 216.208-154.248 0-279.264-125.037-279.264-279.264 0-138.562 100.993-253.218 233.295-275.166-14.827-28.326-22.555-59.331-23.555-90.473-172.38 32.563-302.865 183.763-302.865 365.64 0 205.641 166.702 372.368 372.368 372.368 139.748 0 261.364-77.090 325.048-190.955 15.454 2.653 31.12 4.771 47.32 4.771 154.248 0 279.264-125.037 279.264-279.287s-124.992-279.264-279.239-279.264zM512.041 298.391l82.279-82.279c45.411-45.458 45.411-119.125 0-164.561-45.458-45.458-119.15-45.458-164.561 0-45.458 45.433-45.458 119.102 0 164.561l82.279 82.279z" />
<glyph unicode="&#xe91a;" glyph-name="Cloud-Rain-Moon" d="M501.981 337.569c-22.188 0-40.161-17.972-40.161-40.161v-321.247c0-22.169 17.972-40.161 40.161-40.161 22.169 0 40.161 17.992 40.161 40.161v321.247c0 22.208-18.012 40.161-40.161 40.161zM662.584 417.89c-22.169 0-40.141-17.992-40.141-40.161v-321.247c0-22.188 17.992-40.161 40.141-40.161 22.188 0 40.161 17.972 40.161 40.161v321.247c0 22.169-17.972 40.161-40.161 40.161zM341.338 417.89c-22.169 0-40.141-17.992-40.141-40.161v-321.247c0-22.188 17.992-40.161 40.141-40.161 22.188 0 40.161 17.972 40.161 40.161v321.247c0 22.169-17.972 40.161-40.161 40.161zM963.748 719.076c0 15.141-1.567 29.921-4.238 44.318-11.566-2.651-23.555-4.177-35.903-4.177-88.714 0-160.623 71.907-160.623 160.623 0 12.35 1.526 24.357 4.157 35.903-14.378 2.69-29.136 4.257-44.318 4.257-105.222 0-194.458-67.571-227.269-161.586-35.462 13.493-73.856 21.024-114.056 21.024-177.409 0-321.247-143.816-321.247-321.225 0-118.857 64.72-222.37 160.643-277.933v98.715c-49.197 44.116-80.321 107.932-80.321 179.217 0 133.052 107.852 240.925 240.925 240.925 114.278 0 209.518-79.78 234.238-186.547 25.1 16.286 54.88 25.924 87.008 25.924 88.714 0 160.623-71.907 160.623-160.623 0-59.417-32.329-111.185-80.302-138.956v-87.971c93.493 33.093 160.623 122.049 160.623 226.928 0 51.446-16.286 99.057-43.775 138.194 39.518 42.932 63.836 100.041 63.836 162.992zM843.427 613.213c-39.619 28.595-88.112 45.602-140.682 45.602-13.976 0-27.491-1.847-40.824-4.116-23.212 41.526-55.462 77.29-93.956 104.839 15.060 57.531 60.723 102.631 118.957 115.964 18.153-97.49 94.899-174.217 192.35-192.369-6.044-26.385-18.635-50.221-35.843-69.92z" />
<glyph unicode="&#xe91b;" glyph-name="Cloud-Rain-Moon-Alt" d="M1201.51 598.961v0 0 0zM981.688 335.168c0-145.692-118.1-263.776-263.776-263.776-5.843 0-13.492 0-21.985 0 0 30.141-7.009 60.283-20.735 87.892 17.087 0 31.881 0 42.72 0 97.111 0 175.851 78.757 175.851 175.868s-78.757 175.851-175.851 175.851c-35.19 0-67.797-10.553-95.287-28.386-27.067 116.885-131.307 204.237-256.429 204.237-145.692 0-263.793-118.1-263.793-263.776 0-30.901 5.589-60.419 15.315-87.941h-0.085c31.593-89.107 109.641-156.178 205.131-172.001-14.032-26.714-21.31-55.993-22.255-85.46-134.040 25.328-241.031 126.628-274.769 257.461h0.237c-7.26 28.116-11.517 57.497-11.517 87.941 0 194.238 157.446 351.684 351.703 351.684 44.005 0 86.050-8.241 124.854-23.015 35.968 102.937 133.637 176.914 248.849 176.914 16.598 0 32.759-1.722 48.514-4.661-2.905-12.647-4.576-25.786-4.576-39.31 0-97.127 78.757-175.851 175.851-175.851 13.543 0 26.663 1.671 39.31 4.576 2.938-15.755 4.661-31.948 4.661-48.514 0-68.928-26.646-131.441-69.908-178.418 30.125-42.873 47.922-94.968 47.922-151.316zM700.57 836.192c-63.729-14.589-113.744-63.979-130.241-126.965v0c42.147-30.158 77.423-69.299 102.886-114.774 14.589 2.482 29.366 4.509 44.697 4.509 57.53 0 110.621-18.643 154-49.931 18.861 21.546 32.641 47.668 39.261 76.545-106.719 19.875-190.743 103.85-210.618 210.618zM673.958 1126.496v0 0 0zM498.107 226.809l77.709-77.709c42.907-42.89 42.907-112.495 0-155.385-42.907-42.941-112.511-42.941-155.436 0-42.907 42.89-42.907 112.495 0 155.385l77.709 77.709z" />
<glyph unicode="&#xe91c;" glyph-name="Cloud-Rain-Sun" d="M938.656 516.284h-68.275c-18.844 0-34.137 15.277-34.137 34.137 0 18.844 15.293 34.137 34.137 34.137h68.275c18.844 0 34.137-15.293 34.137-34.137 0-18.877-15.293-34.137-34.137-34.137zM804.548 743.501c-13.33-13.33-34.939-13.33-48.271 0-13.33 13.313-13.33 34.939 0 48.271l48.271 48.271c13.33 13.313 34.939 13.313 48.271 0 13.33-13.33 13.33-34.957 0-48.271l-48.271-48.271zM754.247 477.111v0c29.87-35.571 47.877-81.418 47.877-131.497 0-89.15-57.043-164.746-136.516-192.892v74.777c40.776 23.606 68.275 67.609 68.275 118.115 0 75.392-61.14 136.532-136.549 136.532-27.31 0-52.639-8.193-73.975-22.036-20.994 90.754-101.952 158.568-199.088 158.568-113.113 0-204.79-91.692-204.79-204.79 0-60.594 26.473-114.838 68.275-152.338v-83.91c-81.536 47.245-136.549 135.217-136.549 236.247 0 150.801 122.246 273.047 273.065 273.047 26.831 0 52.743-3.942 77.202-11.163 37.466 48.252 95.874 79.438 161.725 79.438 113.113 0 204.79-91.676 204.79-204.79-0.017-25.876-4.984-50.523-13.74-73.31zM563.18 686.935c-37.739 0-71.945-15.328-96.643-40.111 39.941-24.493 73.138-58.92 96.079-99.92 11.333 1.929 22.838 3.499 34.701 3.499 36.271 0 70.306-9.541 99.852-26.063v0c1.639 8.433 2.56 17.137 2.56 26.063 0 75.427-61.14 136.532-136.549 136.532zM563.18 823.484c-18.844 0-34.137 15.277-34.137 34.137v68.258c0 18.844 15.293 34.121 34.137 34.121 18.861 0 34.137-15.277 34.137-34.121v-68.258c0-18.877-15.26-34.137-34.137-34.137zM321.83 743.501l-48.271 48.271c-13.297 13.313-13.297 34.939 0 48.271 13.33 13.313 34.974 13.313 48.271 0l48.271-48.271c13.33-13.33 13.33-34.957 0-48.271-13.33-13.33-34.939-13.33-48.271 0zM290.116 345.614c18.861 0 34.137-15.293 34.137-34.137v-273.065c0-18.861-15.277-34.137-34.137-34.137-18.844 0-34.137 15.277-34.137 34.137v273.065c0 18.844 15.31 34.137 34.137 34.137zM426.666 277.339c18.844 0 34.137-15.277 34.137-34.137v-273.065c0-18.844-15.293-34.137-34.137-34.137-18.861 0-34.137 15.293-34.137 34.137v273.065c0 18.877 15.277 34.137 34.137 34.137zM563.18 345.614c18.861 0 34.137-15.293 34.137-34.137v-273.065c0-18.861-15.277-34.137-34.137-34.137-18.844 0-34.137 15.277-34.137 34.137v273.065c0 18.844 15.31 34.137 34.137 34.137z" />
<glyph unicode="&#xe91d;" glyph-name="Cloud-Rain-Sun-Alt" horiz-adv-x="1008" d="M970.668 457.332h-74.659c-20.611 0-37.339 16.709-37.339 37.339 0 20.611 16.728 37.339 37.339 37.339h74.659c20.611 0 37.339-16.728 37.339-37.339 0-20.647-16.709-37.339-37.339-37.339zM824.003 705.857c-14.58-14.58-38.215-14.58-52.797 0-14.58 14.562-14.58 38.215 0 52.797l52.797 52.797c14.58 14.562 38.215 14.562 52.797 0 14.58-14.58 14.58-38.236 0-52.797l-52.797-52.797zM768.965 414.467v0c32.635-38.906 52.367-89.053 52.367-143.81v0c0-123.72-100.273-223.995-223.995-223.995-4.966 0-11.462 0-18.669 0 0 25.595-5.956 51.191-17.605 74.641 14.505 0 27.089 0 36.274 0 82.48 0 149.336 66.874 149.336 149.354s-66.854 149.318-149.336 149.318c-29.889 0-57.576-8.961-80.912-24.102-22.981 99.283-111.512 173.456-217.758 173.456-123.72 0-223.995-100.291-223.995-223.995 0-26.248 4.742-51.304 13.012-74.677h-0.093c26.828-75.667 93.104-132.627 174.202-146.069-11.893-22.684-18.091-47.55-18.894-72.568-113.808 21.506-204.689 107.534-233.329 218.636h0.206c-6.16 23.878-9.783 48.821-9.783 74.677 0 164.924 133.709 298.652 298.672 298.652 29.348 0 57.669-4.312 84.442-12.21 40.979 52.777 104.865 86.887 176.891 86.887 123.72 0 223.995-100.273 223.995-223.995 0-28.303-5.451-55.26-15.028-80.203zM560 643.986c-41.315 0-78.692-16.766-105.706-43.873 43.687-26.79 79.997-64.445 105.089-109.29 12.396 2.109 24.943 3.827 37.955 3.827 39.672 0 76.879-10.436 109.215-28.507v0c1.792 9.223 2.782 18.744 2.782 28.507 0 82.5-66.854 149.336-149.336 149.336zM560 793.34c-20.611 0-37.339 16.709-37.339 37.339v74.659c0 20.611 16.728 37.32 37.339 37.32s37.339-16.709 37.339-37.32v-74.659c0-20.647-16.709-37.339-37.339-37.339zM295.998 705.857l-52.797 52.797c-14.58 14.562-14.58 38.215 0 52.797 14.58 14.562 38.215 14.562 52.797 0l52.797-52.797c14.58-14.58 14.58-38.236 0-52.797-14.58-14.58-38.197-14.58-52.797 0zM410.664 178.637l65.995-65.995c36.442-36.423 36.442-95.53 0-131.954-36.442-36.462-95.549-36.462-131.992 0-36.442 36.423-36.442 95.53 0 131.954l65.995 65.995z" />
<glyph unicode="&#xe91e;" glyph-name="Cloud-Refresh" d="M837.026 203.656c-1.582 32.631-7.915 63.914-18.411 93.333 65.869 28.605 112.281 93.519 112.281 169.91 0 102.83-83.325 186.202-186.157 186.202-37.24 0-71.781-11.194-100.875-30.026-28.628 123.732-139.025 216.204-271.482 216.204-154.244 0-279.281-125.012-279.281-279.258 0-97.104 49.878-182.2 125.105-232.194-13.686-28.628-23.253-59.561-28.094-92.101-113.351 63.821-190.112 184.946-190.112 324.295 0 205.636 166.721 372.36 372.382 372.36 139.745 0 261.359-77.088 325.041-190.951 15.454 2.653 31.097 4.771 47.319 4.771 154.244 0 279.258-125.034 279.258-279.304 0-121.823-78.136-225.143-186.971-263.243zM512.033 429.099v-0.418h69.453l-51.833 51.833c-18.177 18.177-18.177 47.644 0 65.846 18.132 18.154 47.644 18.154 65.775 0l131.644-131.669c18.177-18.154 18.177-47.621 0-65.798l-131.644-131.644c-18.132-18.177-47.644-18.177-65.775 0-18.177 18.177-18.177 47.644 0 65.823l52.556 52.556h-70.199c-77.134 0-139.652-62.518-139.652-139.652 0-77.088 62.518-139.606 139.652-139.606 77.088 0 139.606 62.518 139.606 139.606 0 3.63-0.768 7.005-1.048 10.544l77.088 77.088c10.917-26.953 17.038-56.372 17.038-87.237 0-128.551-104.202-232.753-232.708-232.753-128.551 0-232.753 104.202-232.753 232.753 0.070 128.526 104.25 232.73 232.799 232.73z" />
<glyph unicode="&#xe91f;" glyph-name="Cloud-Snow" d="M837.819 184.944v101.968c55.604 32.235 93.079 92.24 93.079 161.111 0 102.784-83.348 186.157-186.18 186.157-37.24 0-71.758-11.172-100.852-30.049-28.651 123.755-139.047 216.251-271.507 216.251-154.244 0-279.258-125.059-279.258-279.304 0-82.605 36.077-156.62 93.101-207.709v-114.422c-111.185 64.425-186.202 184.386-186.202 322.131 0 205.661 166.721 372.382 372.359 372.382 139.745 0 261.359-77.088 325.041-190.951 15.454 2.63 31.119 4.771 47.319 4.771 154.244 0 279.281-125.059 279.281-279.258 0-121.568-77.809-224.677-186.18-263.081zM325.807 354.899c25.719 0 46.551-20.855 46.551-46.551 0-25.719-20.832-46.551-46.551-46.551-25.696 0-46.528 20.832-46.528 46.551 0 25.696 20.832 46.551 46.528 46.551zM325.807 168.697c25.719 0 46.551-20.832 46.551-46.551 0-25.696-20.832-46.505-46.551-46.505-25.696 0-46.528 20.832-46.528 46.505 0 25.741 20.832 46.551 46.528 46.551zM512.010 261.798c25.696 0 46.551-20.832 46.551-46.551 0-25.696-20.855-46.551-46.551-46.551-25.719 0-46.551 20.855-46.551 46.551 0 25.741 20.832 46.551 46.551 46.551zM512.010 75.643c25.696 0 46.551-20.855 46.551-46.551 0-25.719-20.855-46.551-46.551-46.551-25.719 0-46.551 20.832-46.551 46.551 0 25.696 20.832 46.551 46.551 46.551zM698.167 354.899c25.719 0 46.551-20.855 46.551-46.551 0-25.719-20.832-46.551-46.551-46.551-25.696 0-46.528 20.832-46.528 46.551 0 25.696 20.855 46.551 46.528 46.551zM698.167 168.697c25.719 0 46.551-20.832 46.551-46.551 0-25.696-20.832-46.505-46.551-46.505-25.696 0-46.528 20.832-46.528 46.505 0 25.741 20.855 46.551 46.528 46.551z" />
<glyph unicode="&#xe920;" glyph-name="Cloud-Snow-Alt" d="M791.262 149.591v95.013c80.256 20.739 139.655 93.383 139.655 180.108 0 102.809-83.375 186.184-186.184 186.184-37.264 0-71.782-11.172-100.877-30.049-28.652 123.757-139.028 216.256-271.488 216.256-154.248 0-279.287-125.062-279.287-279.31 0-103.298 56.257-193.305 139.632-241.58v-103.462c-136.395 55.28-232.713 188.837-232.713 345.064 0 205.641 166.702 372.391 372.368 372.391 139.748 0 261.364-77.090 325.048-190.955 15.454 2.63 31.097 4.771 47.32 4.771 154.225 0 279.264-125.062 279.264-279.264 0-138.421-100.691-252.938-232.736-275.166zM350.742 285.056c12.872 22.276 41.315 29.863 63.59 17.039l51.114-29.49v59.003c0 25.697 20.855 46.552 46.552 46.552s46.552-20.855 46.552-46.552v-59.003l51.091 29.513c22.276 12.824 50.741 5.237 63.565-17.039 12.872-22.276 5.237-50.741-17.014-63.59l-51.114-29.513 51.114-29.513c22.251-12.872 29.886-41.315 17.014-63.59-12.847-22.228-41.292-29.863-63.565-16.991l-51.091 29.468v-59.003c0-25.719-20.855-46.552-46.552-46.552s-46.552 20.832-46.552 46.552v59.003l-51.091-29.513c-22.276-12.872-50.741-5.237-63.59 16.991-12.847 22.276-5.237 50.741 17.039 63.59l51.091 29.538-51.091 29.513c-22.276 12.872-29.886 41.315-17.061 63.59zM511.998 145.401c25.697 0 46.552 20.855 46.552 46.552 0 25.719-20.855 46.552-46.552 46.552s-46.552-20.832-46.552-46.552c0-25.674 20.855-46.552 46.552-46.552z" />
<glyph unicode="&#xe921;" glyph-name="Cloud-Snow-Moon" d="M932.903 521.691v0c29.83-42.468 47.5-94.108 47.5-149.93 0-113.806-72.819-210.308-174.271-246.283v95.457c52.032 30.177 87.135 86.35 87.135 150.824 0 96.242-78.026 174.292-174.292 174.292-34.884 0-67.197-10.458-94.434-28.13-26.821 115.853-130.148 202.443-254.148 202.443-144.396 0-261.427-117.074-261.427-261.47 0-77.33 33.773-146.619 87.135-194.447v-107.116c-104.086 60.312-174.292 172.613-174.292 301.563 0 192.506 156.054 348.605 348.584 348.605 43.621 0 85.282-8.192 123.762-22.836v0c35.624 102.017 132.435 175.337 246.609 175.337 16.45 0 32.467-1.7 48.089-4.598-2.853-12.55-4.511-25.581-4.511-38.98 0-96.264 78.005-174.271 174.271-174.271 13.422 0 26.43 1.634 38.98 4.511 2.898-15.623 4.598-31.66 4.598-48.089 0-68.332-26.387-130.299-69.289-176.884zM701.785 868.291c-63.167-14.467-112.738-63.406-129.079-125.832 41.791-29.894 76.764-68.678 101.973-113.761 14.467 2.462 29.111 4.466 44.297 4.466 57.022 0 109.665-18.478 152.632-49.483v0c18.695 21.353 32.356 47.217 38.916 75.87-105.765 19.719-189.042 102.975-208.74 208.74zM326.816 284.581c24.055 0 43.578-19.523 43.578-43.578 0-24.077-19.523-43.578-43.578-43.578s-43.578 19.502-43.578 43.578c0 24.055 19.502 43.578 43.578 43.578zM326.816 110.268c24.055 0 43.578-19.502 43.578-43.578 0-24.055-19.523-43.536-43.578-43.536s-43.578 19.502-43.578 43.536c0 24.098 19.502 43.578 43.578 43.578zM501.108 197.424c24.055 0 43.578-19.502 43.578-43.578 0-24.055-19.523-43.578-43.578-43.578s-43.557 19.523-43.557 43.578c0 24.098 19.502 43.578 43.557 43.578zM501.108 23.156c24.055 0 43.578-19.523 43.578-43.578 0-24.077-19.523-43.578-43.578-43.578s-43.557 19.502-43.557 43.578c0 24.055 19.502 43.578 43.557 43.578zM675.4 284.581c24.055 0 43.578-19.523 43.578-43.578 0-24.077-19.523-43.578-43.578-43.578s-43.578 19.502-43.578 43.578c0 24.055 19.523 43.578 43.578 43.578zM675.4 110.268c24.055 0 43.578-19.502 43.578-43.578 0-24.055-19.523-43.536-43.578-43.536s-43.578 19.502-43.578 43.536c0 24.098 19.523 43.578 43.578 43.578z" />
<glyph unicode="&#xe922;" glyph-name="Cloud-Snow-Moon-Alt" d="M951.625 502.21v0c31.156-44.355 49.611-98.291 49.611-156.594 0-118.864-76.056-219.656-182.039-257.23v99.7c54.367 31.518 91.008 90.188 91.008 157.528 0 100.52-81.494 182.039-182.039 182.039-36.412 0-70.162-10.923-98.609-29.38-28.038 121.002-135.955 211.442-265.469 211.442-150.792 0-273.047-122.278-273.047-273.092 0-80.767 35.274-153.136 91.008-203.090v-111.877c-108.69 62.992-182.039 180.285-182.039 314.967 0 201.063 163.013 364.1 364.078 364.1 45.56 0 89.073-8.556 129.263-23.851v0c37.208 106.552 138.322 183.13 257.57 183.13 17.182 0 33.932-1.776 50.249-4.803-3.005-13.108-4.734-26.718-4.734-40.713 0-100.543 81.494-182.017 182.039-182.017 13.997 0 27.583 1.707 40.69 4.712 3.049-16.317 4.825-33.067 4.825-50.227 0-71.369-27.583-136.090-72.369-184.746zM710.236 864.216c-65.997-15.11-117.749-66.224-134.817-131.425v0c43.626-31.223 80.152-71.731 106.483-118.818 15.11 2.571 30.427 4.665 46.266 4.665 59.579 0 114.539-19.275 159.417-51.682v0c19.548 22.302 33.819 49.316 40.646 79.243-110.466 20.595-197.422 107.552-217.995 218.018zM342.974 209.045c12.561 21.78 40.395 29.198 62.15 16.659l49.976-28.856v57.69c0 25.125 20.391 45.515 45.515 45.515s45.493-20.391 45.493-45.515v-57.69l49.976 28.856c21.755 12.539 49.611 5.12 62.15-16.659 12.586-21.78 5.12-49.611-16.635-62.175l-49.953-28.856 49.976-28.856c21.755-12.586 29.22-40.395 16.635-62.175-12.561-21.733-40.395-29.198-62.15-16.613l-49.976 28.834v-57.69c0-25.147-20.391-45.515-45.493-45.515-25.125 0-45.515 20.369-45.515 45.515v57.69l-49.976-28.856c-21.755-12.586-49.611-5.12-62.15 16.613-12.561 21.78-5.12 49.611 16.635 62.175l49.976 28.856-49.976 28.856c-21.755 12.608-29.22 40.417-16.659 62.197zM500.637 72.5c25.125 0 45.493 20.391 45.493 45.515 0 25.147-20.391 45.515-45.493 45.515-25.125 0-45.515-20.369-45.515-45.515 0-25.102 20.369-45.515 45.515-45.515z" />
<glyph unicode="&#xe923;" glyph-name="Cloud-Snow-Sun" d="M969.155 484.585h-73.152c-20.19 0-36.576 16.368-36.576 36.576 0 20.19 16.386 36.576 36.576 36.576h73.152c20.19 0 36.558-16.386 36.558-36.576 0-20.226-16.368-36.576-36.558-36.576zM825.467 728.036c-14.282-14.282-37.435-14.282-51.719 0s-14.282 37.435 0 51.719l51.719 51.719c14.282 14.282 37.435 14.282 51.719 0s14.282-37.435 0-51.719l-51.719-51.719zM771.553 442.614v0c31.986-38.112 51.298-87.234 51.298-140.891 0-95.519-61.118-176.515-146.268-206.71v80.119c43.689 25.328 73.134 72.475 73.134 126.589 0 80.778-65.489 146.286-146.286 146.286-29.261 0-56.382-8.778-79.26-23.61-22.512 97.219-109.235 169.914-213.311 169.914-121.194 0-219.42-98.262-219.42-219.456 0-64.905 28.346-123.060 73.134-163.203v-89.904c-87.343 50.621-146.286 144.877-146.286 253.107 0 161.594 130.979 292.59 292.572 292.59 28.748 0 56.511-4.243 82.718-11.978 40.143 51.719 102.741 85.112 173.279 85.112 121.194 0 219.438-98.225 219.438-219.42 0-27.725-5.358-54.114-14.739-78.547zM566.856 667.428c-40.453 0-77.085-16.423-103.547-42.995 42.795-26.243 78.363-63.149 102.943-107.040 12.143 2.066 24.451 3.749 37.18 3.749 38.862 0 75.309-10.223 106.985-27.925v0c1.756 9.035 2.743 18.361 2.743 27.925 0 80.796-65.508 146.286-146.304 146.286zM566.856 813.714c-20.19 0-36.576 16.368-36.576 36.576v73.134c0 20.19 16.386 36.576 36.576 36.576s36.576-16.386 36.576-36.576v-73.134c0-20.208-16.368-36.576-36.576-36.576zM308.245 728.036l-51.719 51.719c-14.264 14.282-14.264 37.435 0 51.719 14.282 14.282 37.455 14.282 51.719 0l51.719-51.719c14.282-14.282 14.282-37.435 0-51.719-14.264-14.282-37.417-14.282-51.719 0zM274.284 228.571c20.19 0 36.576-16.386 36.576-36.576 0-20.208-16.386-36.576-36.576-36.576s-36.576 16.368-36.576 36.576c0 20.19 16.386 36.576 36.576 36.576zM274.284 82.267c20.19 0 36.576-16.368 36.576-36.576 0-20.19-16.386-36.54-36.576-36.54s-36.576 16.368-36.576 36.54c0 20.226 16.386 36.576 36.576 36.576zM420.588 155.419c20.19 0 36.558-16.368 36.558-36.576 0-20.19-16.386-36.576-36.558-36.576-20.208 0-36.576 16.386-36.576 36.576 0 20.226 16.368 36.576 36.576 36.576zM420.588 9.152c20.19 0 36.558-16.386 36.558-36.576 0-20.208-16.386-36.576-36.558-36.576-20.208 0-36.576 16.368-36.576 36.576 0 20.19 16.368 36.576 36.576 36.576zM566.856 228.571c20.19 0 36.576-16.386 36.576-36.576 0-20.208-16.386-36.576-36.576-36.576s-36.576 16.368-36.576 36.576c0 20.19 16.404 36.576 36.576 36.576zM566.856 82.267c20.19 0 36.576-16.368 36.576-36.576 0-20.19-16.386-36.54-36.576-36.54s-36.576 16.368-36.576 36.54c0 20.226 16.404 36.576 36.576 36.576z" />
<glyph unicode="&#xe924;" glyph-name="Cloud-Snow-Sun-Alt" d="M986.069 466.974h-75.861c-20.938 0-37.912 16.974-37.912 37.931 0 20.938 16.974 37.931 37.912 37.931h75.861c20.938 0 37.931-16.993 37.931-37.931 0-20.975-16.974-37.931-37.931-37.931zM837.078 719.441c-14.811-14.811-38.842-14.811-53.635 0-14.811 14.811-14.811 38.822 0 53.635l53.635 53.635c14.793 14.811 38.822 14.811 53.614 0 14.811-14.811 14.811-38.822 0-53.635l-53.614-53.635zM781.149 423.448v0c33.171-39.524 53.216-90.465 53.216-146.109 0-112.749-82.044-206.059-189.635-224.171v77.417c65.393 16.898 113.774 76.089 113.774 146.754 0 83.77-67.914 151.704-151.686 151.704-30.363 0-58.489-9.103-82.196-24.485-23.346 100.82-113.3 176.207-221.232 176.207-125.664 0-227.547-101.902-227.547-227.584 0-84.168 45.821-157.507 113.774-196.842v-84.301c-111.136 45.043-189.617 153.866-189.617 281.161 0 167.579 135.83 303.427 303.388 303.427 29.833 0 58.604-4.401 85.8-12.422 41.629 53.635 106.528 88.265 179.697 88.265 125.664 0 227.547-101.863 227.547-227.547 0-28.77-5.556-56.137-15.285-81.475zM568.889 656.589c-41.97 0-79.94-17.032-107.401-44.587 44.398-27.215 81.286-65.488 106.775-111.005 12.574 2.143 25.338 3.888 38.557 3.888 40.301 0 78.099-10.601 110.947-28.959v0c1.821 9.37 2.826 19.041 2.826 28.959 0 83.809-67.935 151.704-151.704 151.704zM568.889 808.293c-20.938 0-37.931 16.974-37.931 37.931v75.843c0 20.938 16.993 37.931 37.931 37.931s37.931-16.993 37.931-37.931v-75.843c0-20.956-16.993-37.931-37.931-37.931zM300.699 719.441l-53.635 53.635c-14.811 14.811-14.811 38.822 0 53.635s38.822 14.811 53.635 0l53.635-53.635c14.811-14.811 14.811-38.822 0-53.635s-38.803-14.811-53.635 0zM285.794 163.547c10.488 18.15 33.664 24.333 51.794 13.883l41.648-24.047v48.076c0 20.938 16.993 37.931 37.931 37.931s37.912-16.993 37.912-37.931v-48.076l41.648 24.047c18.13 10.449 41.344 4.267 51.794-13.883 10.488-18.15 4.267-41.344-13.863-51.814l-41.629-24.047 41.648-24.047c18.13-10.488 24.351-33.664 13.863-51.814-10.468-18.112-33.664-24.333-51.794-13.844l-41.648 24.029v-48.076c0-20.956-16.974-37.931-37.912-37.931s-37.931 16.974-37.931 37.931v48.076l-41.648-24.047c-18.13-10.488-41.326-4.267-51.794 13.844-10.468 18.15-4.267 41.344 13.883 51.814l41.629 24.047-41.629 24.047c-18.15 10.507-24.37 33.682-13.902 51.832zM417.185 49.754c20.938 0 37.912 16.993 37.912 37.931 0 20.956-16.974 37.931-37.912 37.931s-37.931-16.974-37.931-37.931c0-20.919 16.974-37.931 37.931-37.931z" />
<glyph unicode="&#xe925;" glyph-name="Cloud-Sun" d="M986.070 410.087h-75.861c-20.938 0-37.931 16.974-37.931 37.931 0 20.938 16.993 37.894 37.931 37.894h75.861c20.938 0 37.931-16.974 37.931-37.894 0-20.956-16.993-37.931-37.931-37.931zM837.059 662.555c-14.811-14.811-38.822-14.811-53.635 0-14.811 14.793-14.811 38.822 0 53.614l53.635 53.635c14.811 14.811 38.822 14.811 53.635 0 14.811-14.793 14.811-38.822 0-53.635l-53.635-53.614zM781.168 366.562v0c33.171-39.562 53.216-90.465 53.216-146.128 0-125.646-101.881-227.547-227.566-227.547-52.629 0-242.775 0-303.409 0-167.558 0-303.409 135.83-303.409 303.409s135.849 303.409 303.409 303.409c29.813 0 58.604-4.401 85.781-12.403 41.629 53.614 106.547 88.265 179.697 88.265 125.683 0 227.566-101.902 227.566-227.547-0.019-28.733-5.577-56.157-15.285-81.457zM75.846 296.295c0-125.683 101.863-227.547 227.547-227.547 68.579 0 246.152 0 303.409 0 83.788 0 151.704 67.935 151.704 151.686 0 83.788-67.914 151.723-151.704 151.723-30.345 0-58.47-9.142-82.177-24.485-23.346 100.82-113.3 176.169-221.232 176.169-125.683 0-227.547-101.863-227.547-227.547zM568.869 599.704c-41.952 0-79.94-17.032-107.382-44.55 44.38-27.235 81.266-65.488 106.756-111.023 12.592 2.143 25.357 3.888 38.557 3.888 40.301 0 78.119-10.601 110.947-28.959v0c1.821 9.37 2.845 19.041 2.845 28.959 0 83.751-67.935 151.686-151.723 151.686zM568.869 751.427c-20.938 0-37.912 16.974-37.912 37.912v75.843c0 20.956 16.993 37.931 37.912 37.931 20.956 0 37.931-16.974 37.931-37.931v-75.843c0-20.956-16.956-37.912-37.931-37.912zM300.7 662.555l-53.614 53.614c-14.811 14.811-14.811 38.842 0 53.635 14.793 14.811 38.822 14.811 53.614 0l53.635-53.635c14.811-14.793 14.811-38.822 0-53.614-14.793-14.811-38.822-14.811-53.635 0z" />
<glyph unicode="&#xe926;" glyph-name="Cloud-Upload" d="M744.754 91.251c-19.366 0-54.094 0-94.988 0 0.559 5.098 1.514 10.056 1.514 15.268v77.835c39.126 0 72.782 0 93.476 0 102.832 0 186.184 83.375 186.184 186.161 0 102.832-83.35 186.207-186.184 186.207-28.629 0-55.605-6.726-79.79-18.341l-37.66 37.66c-43.199 98.154-140.773 166.865-254.916 166.865-154.248 0-279.264-125.014-279.264-279.264 0-154.132 124.828-279.053 278.892-279.287v-77.835c0-5.237 0.977-10.195 1.537-15.268-0.373 0-0.814 0-1.187 0-205.666 0-372.368 166.702-372.368 372.39 0 205.641 166.702 372.368 372.368 372.368 139.748 0 261.364-77.090 325.048-190.955 15.454 2.653 31.12 4.771 47.32 4.771 154.248 0 279.264-125.037 279.264-279.31 0.023-154.202-124.992-279.264-279.239-279.264zM347.11 329.665c-18.177 18.132-18.177 47.645 0 65.777l131.647 131.672c18.155 18.177 47.645 18.177 65.825 0l131.624-131.672c18.177-18.132 18.177-47.645 0-65.777-18.155-18.177-47.645-18.177-65.8 0l-52.207 52.184v-275.307c0-25.697-20.855-46.552-46.529-46.552-25.719 0-46.552 20.855-46.552 46.552v275.307l-52.184-52.184c-18.177-18.202-47.645-18.202-65.825 0z" />
<glyph unicode="&#xe927;" glyph-name="Cloud-Wind" d="M924.434 221.418v-0.967h-71.102c-20.938 0-37.931 16.974-37.931 37.931 0 20.938 16.993 37.912 37.931 37.912h56.896c20.938 0 37.912 16.993 37.912 37.931s-16.974 37.912-37.912 37.912-37.931 16.993-37.931 37.931c0 20.957 16.993 37.931 37.931 37.931 2.617 0 5.158-0.265 7.623-0.778 59.21-4.002 106.149-52.781 106.149-112.997 0-57.997-43.45-105.77-99.569-112.808zM720.594 447.998c-20.938 0-37.931 16.993-37.931 37.931s16.993 37.931 37.931 37.931c2.617 0 5.158-0.265 7.644-0.778 59.191-4.002 106.131-52.781 106.131-113.015 0-58.015-43.45-105.77-99.55-112.787v-0.985h-165.663c-76.090 0-215.41 0-265.745 0-20.938 0-37.931-16.993-37.931-37.912 0-20.957 16.993-37.931 37.931-37.931h431.408v-1.006c56.1-6.999 99.55-54.791 99.55-112.787 0-60.215-46.94-108.994-106.131-112.997-2.484-0.493-5.045-0.778-7.644-0.778-20.938 0-37.931 16.993-37.931 37.931s16.993 37.912 37.931 37.912 37.931 16.993 37.931 37.931-16.993 37.931-37.931 37.931h-431.408v0.985c-56.119 7.018-99.569 54.811-99.569 112.808 0 20.008 5.577 38.538 14.661 54.811-118.82 41.117-204.277 153.696-204.277 286.512 0 167.559 135.831 303.411 303.411 303.411 113.869 0 212.964-62.814 264.854-155.593 12.592 2.161 25.339 3.888 38.557 3.888 111.82 0 204.6-80.716 223.756-187.038-26.457 18.871-57.845 31.217-91.964 34.423-26.115 45.821-75.312 76.753-131.792 76.753-30.363 0-58.489-9.103-82.196-24.466-23.346 100.821-113.282 176.19-221.213 176.19-125.683 0-227.567-101.882-227.567-227.567 0-125.665 101.882-227.567 227.567-227.567 49.273 0 154.606 0 231.361 0h185.825c20.938 0 37.931 16.993 37.931 37.931 0 20.975-16.974 37.931-37.931 37.931z" />
<glyph unicode="&#xe928;" glyph-name="Cloud-Wind-Moon" d="M916.949 160.375v-0.949h-69.809c-20.557 0-37.241 16.666-37.241 37.241 0 20.557 16.684 37.223 37.241 37.223h55.843c20.557 0 37.241 16.684 37.241 37.241s-16.684 37.223-37.241 37.223-37.241 16.684-37.241 37.241 16.684 37.241 37.241 37.241c2.588 0 5.084-0.26 7.505-0.764 58.133-3.93 104.2-51.821 104.2-110.941 0-56.942-42.642-103.846-97.74-110.756zM815.281 531.78h0.185c3.966-11.209 7.168-22.754 9.31-34.69-25.958 18.528-56.793 30.649-90.291 33.797-0.167 0.316-0.391 0.576-0.576 0.895h0.056c-25.771 44.484-73.775 74.464-128.873 74.464-29.793 0-57.407-8.937-80.683-24.021-22.941 98.987-111.239 172.985-217.209 172.985-123.379 0-223.41-100.029-223.41-223.428v0c0-123.379 100.029-223.428 223.41-223.428 48.377 0 151.794 0 227.152 0h182.445c20.557 0 37.241 16.684 37.241 37.241 0 20.575-16.684 37.241-37.241 37.241s-37.223 16.684-37.223 37.241 16.684 37.241 37.223 37.241c2.588 0 5.084-0.26 7.505-0.764 58.133-3.93 104.219-51.821 104.219-110.959 0-56.96-42.66-103.846-97.758-110.736v-0.967h-162.65c-74.706 0-211.474 0-260.911 0-20.557 0-37.223-16.684-37.223-37.223 0-20.575 16.666-37.241 37.223-37.241h423.561v-0.987c55.098-6.872 97.758-53.794 97.758-110.736 0-59.12-46.086-107.012-104.219-110.941-2.42-0.484-4.935-0.764-7.505-0.764-20.557 0-37.223 16.684-37.223 37.241s16.684 37.223 37.223 37.223c20.557 0 37.241 16.684 37.241 37.241 0 20.575-16.684 37.241-37.241 37.241h-423.561v0.967c-55.080 6.89-97.74 53.814-97.74 110.756 0 19.644 5.475 37.838 14.395 53.814-116.677 40.369-200.58 150.901-200.58 281.301 0 164.512 133.379 297.892 297.892 297.892 37.277 0 72.88-7.001 105.764-19.515 30.444 87.2 113.176 149.839 210.747 149.839 14.058 0 27.764-1.453 41.114-3.93-2.458-10.725-3.873-21.843-3.873-33.311 0-82.265 66.679-148.928 148.946-148.928 11.452 0 22.568 1.415 33.293 3.855 2.495-13.351 3.948-27.036 3.948-41.096 0-58.375-22.568-111.332-59.213-151.106 11.507-16.386 20.519-34.523 27.354-53.701zM590.42 881.661c-54-12.345-96.343-54.185-110.308-107.515v0c35.695-25.547 65.581-58.711 87.126-97.236 12.363 2.122 24.896 3.817 37.856 3.817 48.748 0 93.717-15.791 130.436-42.287 15.995 18.248 27.671 40.389 33.257 64.837-90.384 16.851-161.533 88-178.366 178.384z" />
<glyph unicode="&#xe929;" glyph-name="Cloud-Wind-Sun" d="M911.993 543.997h-64.008c-17.666 0-31.988 14.338-31.988 32.004s14.322 32.004 31.988 32.004h64.008c17.666 0 32.004-14.338 32.004-32.004s-14.322-32.004-32.004-32.004zM786.282 757.032c-12.497-12.497-32.773-12.497-45.254 0-12.497 12.497-12.497 32.756 0 45.254l45.254 45.254c12.481 12.497 32.756 12.497 45.237 0 12.497-12.497 12.497-32.756 0-45.254l-45.237-45.254zM739.092 507.272v0c14.594-17.394 26.083-37.445 33.828-59.272h-0.159c3.408-9.632 6.16-19.554 8.001-29.812-22.308 15.922-48.791 26.339-77.579 29.044-0.159 0.272-0.352 0.495-0.513 0.769h0.048c-22.147 38.228-63.385 63.992-110.734 63.992-25.619 0-49.35-7.681-69.353-20.643-19.698 85.067-95.596 148.659-186.664 148.659-106.029 0-191.993-85.962-191.993-192.009v0c0-106.029 85.962-192.009 191.993-192.009 41.59 0 130.465 0 195.225 0h156.789c17.666 0 31.988 14.338 31.988 32.004 0 17.682-14.322 32.004-31.988 32.004s-32.004 14.338-32.004 32.004 14.338 32.004 32.004 32.004c2.208 0 4.352-0.223 6.432-0.656 49.958-3.377 89.563-44.534 89.563-95.356 0-48.95-36.661-89.243-83.995-95.164v-0.831h-139.777c-64.2 0-181.751 0-224.236 0-17.666 0-31.988-14.338-31.988-31.988 0-17.682 14.338-32.004 31.988-32.004h364.015v-0.849c47.334-5.905 83.995-46.229 83.995-95.164 0-50.806-39.605-91.963-89.563-95.34-2.080-0.416-4.241-0.656-6.432-0.656-17.666 0-32.004 14.338-32.004 32.004s14.338 31.988 32.004 31.988 31.988 14.338 31.988 32.004c0 17.682-14.322 32.004-31.988 32.004h-363.982v0.831c-47.35 5.921-84.011 46.246-84.011 95.181 0 16.882 4.705 32.517 12.37 46.246-100.269 34.692-172.358 129.68-172.358 241.743 0 141.377 114.607 256.001 255.984 256.001 25.172 0 49.447-3.713 72.394-10.481 35.125 45.254 89.883 74.473 151.619 74.473 106.029 0 191.993-85.947 191.993-191.993 0-24.244-4.688-47.35-12.897-68.729zM559.997 704c-35.412 0-67.449-14.371-90.619-37.62 37.461-22.962 68.585-55.223 90.091-93.676 10.609 1.824 21.379 3.28 32.532 3.28 34.004 0 65.896-8.945 93.612-24.434v0c1.536 7.906 2.385 16.082 2.385 24.434 0 70.714-57.32 128.016-128.001 128.016zM559.997 832.001c-17.666 0-32.004 14.338-32.004 32.004v63.992c0 17.666 14.338 32.004 32.004 32.004s32.004-14.338 32.004-32.004v-63.992c0-17.666-14.338-32.004-32.004-32.004zM333.712 757.032l-45.254 45.254c-12.497 12.497-12.497 32.756 0 45.254s32.756 12.497 45.254 0l45.254-45.254c12.497-12.497 12.497-32.756 0-45.254s-32.74-12.497-45.254 0zM767.992 160.013c0 17.666 14.338 31.988 32.004 31.988h47.99c17.666 0 32.004 14.338 32.004 32.004s-14.338 31.988-32.004 31.988-31.988 14.338-31.988 32.004c0 17.682 14.322 32.004 31.988 32.004 2.224 0 4.369-0.223 6.449-0.656 49.958-3.377 89.563-44.534 89.563-95.34 0-48.95-36.661-89.243-84.011-95.181v-0.816h-59.992c-17.666 0-32.004 14.322-32.004 32.004z" />
<glyph unicode="&#xe92a;" glyph-name="Compass" d="M512-64c-282.801 0-511.982 229.253-511.982 512.018 0 282.726 229.181 511.982 511.982 511.982 282.726 0 511.982-229.253 511.982-511.982 0-282.762-229.253-512.018-511.982-512.018zM512 813.699c-202.007 0-365.753-163.746-365.753-365.681 0-201.968 163.746-365.717 365.753-365.717 201.932 0 365.681 163.746 365.681 365.717 0 201.932-163.746 365.681-365.681 365.681zM626.080 357.641c-3.511-5.083-7.058-9.472-10.644-13.059-3.658-3.622-8.083-7.169-13.13-10.715-15.655-12.437-33.136-21.177-51.57-26.26-95.096-38.843-245.604-66.457-245.604-66.457s27.578 150.469 66.421 245.604c5.083 18.47 13.862 35.918 26.299 51.609 3.511 5.083 7.058 9.508 10.715 13.094 3.586 3.622 8.012 7.169 13.059 10.68 15.727 12.437 33.136 21.213 51.645 26.299 95.096 38.843 245.604 66.457 245.604 66.457s-27.649-150.509-66.493-245.64c-5.083-18.434-13.862-35.879-26.299-51.609zM537.86 473.878c-14.301 14.301-37.418 14.301-51.716 0s-14.301-37.418 0-51.716 37.418-14.301 51.716 0 14.301 37.418 0 51.716z" />
<glyph unicode="&#xe92b;" glyph-name="Compass-East" d="M512.036 960c-282.791 0-512.036-229.245-512.036-511.964 0-282.791 229.245-512.036 512.036-512.036 282.716 0 511.964 229.245 511.964 512.036 0 282.752-229.245 511.964-511.964 511.964zM512.036 82.336c-202 0-365.74 163.74-365.74 365.74 0 201.925 163.74 365.668 365.74 365.668 201.925 0 365.668-163.74 365.668-365.668 0-202.035-163.74-365.74-365.668-365.74zM512.036 594.296c-80.791 0-146.296-65.469-146.296-146.26 0-80.756 65.505-146.296 146.296-146.296 80.72 0 292.52 146.296 292.52 146.296s-211.8 146.26-292.52 146.26zM512.036 411.466c-20.226 0-36.574 16.348-36.574 36.574 0 20.187 16.348 36.574 36.574 36.574 20.151 0 36.503-16.387 36.503-36.574s-16.348-36.574-36.503-36.574z" />
<glyph unicode="&#xe92c;" glyph-name="Compass-North" d="M512.018 960c-282.762 0-512.018-229.253-512.018-511.982 0-282.762 229.253-512.018 512.018-512.018 282.726 0 511.982 229.253 511.982 512.018 0 282.726-229.253 511.982-511.982 511.982zM512.018 82.301c-201.968 0-365.717 163.746-365.717 365.717 0 201.932 163.746 365.681 365.717 365.681 201.932 0 365.717-163.746 365.717-365.681 0-201.968-163.785-365.717-365.717-365.717zM365.717 448.018c0-80.794 65.507-146.301 146.301-146.301s146.265 65.507 146.265 146.301-146.265 292.566-146.265 292.566-146.301-211.772-146.301-292.566zM548.593 448.018c0-20.227-16.387-36.575-36.575-36.575-20.227 0-36.575 16.348-36.575 36.575 0 20.188 16.348 36.575 36.575 36.575 20.188 0 36.575-16.387 36.575-36.575z" />
<glyph unicode="&#xe92d;" glyph-name="Compass-South" d="M512 960c-282.716 0-511.964-229.245-511.964-511.964 0-282.791 229.245-512.036 511.964-512.036 282.752 0 511.964 229.245 511.964 512.036 0 282.752-229.209 511.964-511.964 511.964zM512 82.336c-201.925 0-365.668 163.74-365.668 365.74 0 201.925 163.74 365.668 365.668 365.668 201.96 0 365.704-163.74 365.704-365.668 0-202.035-163.74-365.74-365.704-365.74zM512 594.296c-80.756 0-146.26-65.469-146.26-146.26 0-80.756 146.26-292.592 146.26-292.592s146.296 211.8 146.296 292.592c0 80.791-65.505 146.26-146.296 146.26zM512 411.466c-20.187 0-36.574 16.348-36.574 36.574 0 20.187 16.387 36.574 36.574 36.574 20.226 0 36.574-16.387 36.574-36.574s-16.348-36.574-36.574-36.574z" />
<glyph unicode="&#xe92e;" glyph-name="Compass-West" d="M512 960c-282.726 0-511.982-229.253-511.982-511.982 0-282.762 229.253-512.018 511.982-512.018 282.762 0 511.982 229.253 511.982 512.018s-229.217 511.982-511.982 511.982zM512 82.34c-201.968 0-365.717 163.746-365.717 365.717 0 201.932 163.746 365.681 365.717 365.681s365.717-163.746 365.717-365.681c0-202.007-163.746-365.717-365.717-365.717zM512 594.283c-80.794 0-292.566-146.265-292.566-146.265s211.772-146.301 292.566-146.301 146.301 65.507 146.301 146.301c0 80.794-65.507 146.265-146.301 146.265zM512 411.442c-20.188 0-36.575 16.348-36.575 36.575 0 20.188 16.387 36.575 36.575 36.575 20.227 0 36.575-16.387 36.575-36.575 0-20.227-16.348-36.575-36.575-36.575z" />
<glyph unicode="&#xe92f;" glyph-name="Degrees-Celcius" d="M783.083 688.961c-66.539 0-120.488-53.949-120.488-120.488v-240.946c0-66.539 53.949-120.458 120.488-120.458s120.488 53.92 120.488 120.458h120.429c0-133.078-107.836-240.946-240.917-240.946s-240.976 107.865-240.976 240.946v240.946c0 133.078 107.898 240.946 240.976 240.946s240.917-107.865 240.917-240.946h-120.429c0 66.539-53.949 120.488-120.488 120.488zM210.795 387.771c-116.423 0-210.795 94.402-210.795 210.824s94.372 210.824 210.795 210.824c116.452 0 210.854-94.402 210.854-210.824s-94.372-210.824-210.854-210.824zM210.795 688.961c-49.881 0-90.336-40.485-90.336-90.366s40.453-90.366 90.336-90.366c49.913 0 90.366 40.485 90.366 90.366s-40.423 90.366-90.366 90.366z" />
<glyph unicode="&#xe930;" glyph-name="Degrees-Fahrenheit" d="M903.49 568.467c0 66.535-53.946 120.481-120.481 120.481s-120.481-53.946-120.481-120.481v-120.452h240.962v-120.481h-240.962v-240.933h-120.422v481.865c0 133.070 107.859 240.933 240.933 240.933s240.962-107.859 240.962-240.933h-120.51zM210.783 387.774c-116.416 0-210.783 94.396-210.783 210.812s94.367 210.812 210.783 210.812 210.842-94.396 210.842-210.812-94.396-210.812-210.842-210.812zM210.783 688.948c-49.878 0-90.331-40.483-90.331-90.361s40.451-90.361 90.331-90.361c49.91 0 90.361 40.483 90.361 90.361s-40.421 90.361-90.361 90.361z" />
<glyph unicode="&#xe931;" glyph-name="Moon" d="M512.021-64c-282.785 0-512.021 229.232-512.021 511.979 0 282.785 229.232 512.021 512.021 512.021 32.216 0 63.624-3.33 94.178-9.047-5.634-24.578-8.876-50.056-8.876-76.297 0-188.523 152.852-341.333 341.375-341.333 26.245 0 51.719 3.242 76.297 8.876 5.676-30.595 9.005-61.958 9.005-94.22 0-282.743-229.232-511.979-511.979-511.979zM435.724 780.478c-151.739-34.692-265.037-170.217-265.037-332.499 0-188.481 152.806-341.333 341.333-341.333 162.237 0 297.766 113.293 332.457 265.037-207.129 38.576-370.22 201.666-408.754 408.796z" />
<glyph unicode="&#xe932;" glyph-name="Moon-First-Quarter" d="M511.979-64c-282.785 0-511.979 229.232-511.979 511.979 0 282.785 229.19 512.021 511.979 512.021s512.021-229.232 512.021-512.021c0-282.743-229.232-511.979-512.021-511.979zM511.979 106.646c188.523 0 341.333 152.852 341.333 341.333 0 188.523-152.806 341.333-341.333 341.333v-682.667z" />
<glyph unicode="&#xe933;" glyph-name="Moon-Full" d="M512.042-63.979c-282.773 0-512.042 229.223-512.042 512 0 282.731 229.269 511.958 512.042 511.958s511.958-229.223 511.958-511.958c0-282.773-229.181-512-511.958-512zM512.042 789.298c-188.515 0-341.361-152.8-341.361-341.278 0-188.515 152.846-341.319 341.361-341.319s341.278 152.8 341.278 341.319c0 188.474-152.758 341.278-341.278 341.278z" />
<glyph unicode="&#xe934;" glyph-name="Moon-Last-Quarter" d="M512.042-63.979c282.69 0 511.958 229.181 511.958 512 0 282.731-229.269 511.958-511.958 511.958-282.773 0-512.042-229.223-512.042-511.958 0-282.819 229.269-512 512.042-512zM512.042 106.701c-188.515 0-341.361 152.758-341.361 341.319 0 188.474 152.846 341.278 341.361 341.278v-682.593z" />
<glyph unicode="&#xe935;" glyph-name="Moon-New" d="M512.021-64c-282.785 0-512.021 229.232-512.021 511.979 0 282.785 229.232 512.021 512.021 512.021 282.743 0 511.979-229.232 511.979-512.021 0-282.743-229.232-511.979-511.979-511.979z" />
<glyph unicode="&#xe936;" glyph-name="Moon-Waning-Crescent" d="M512-63.979c-282.731 0-512 229.181-512 511.958s229.269 512 512 512c282.773 0 512-229.223 512-512s-229.223-511.958-512-511.958zM597.34 778.077c-27.352 7.084-55.813 11.18-85.34 11.18-188.474 0-341.319-152.758-341.319-341.278s152.846-341.278 341.319-341.278c29.527 0 57.988 4.096 85.34 11.18-147.129 37.932-255.979 171.106-255.979 330.098s108.851 292.207 255.979 330.098z" />
<glyph unicode="&#xe937;" glyph-name="Moon-Waning-Gibbous" d="M512.042-63.979c282.69 0 511.958 229.181 511.958 511.958s-229.269 512-511.958 512c-282.773 0-512.042-229.223-512.042-512s229.269-511.958 512.042-511.958zM512.042 789.257c94.258 0 170.597-152.758 170.597-341.278s-76.335-341.278-170.597-341.278c-188.515 0-341.361 152.758-341.361 341.278s152.846 341.278 341.361 341.278z" />
<glyph unicode="&#xe938;" glyph-name="Moon-Waxing-Crescent" d="M511.979-64c282.773 0 512 229.269 512 511.959 0 282.773-229.223 512.042-512 512.042-282.732 0-511.959-229.269-511.959-512.042 0-282.69 229.223-511.959 511.959-511.959zM426.68 778.14c27.311 6.996 55.813 11.18 85.299 11.18 188.515 0 341.32-152.846 341.32-341.361 0-188.432-152.8-341.278-341.32-341.278-29.486 0-57.988 4.184-85.299 11.18 147.129 37.891 255.979 171.152 255.979 330.098 0 159.030-108.851 292.207-255.979 330.181z" />
<glyph unicode="&#xe939;" glyph-name="Moon-Waxing-Gibbous" d="M512-64.001c-282.785 0-511.98 229.232-511.98 512.021 0 282.743 229.191 511.98 511.98 511.98s511.98-229.232 511.98-511.98c0-282.785-229.191-512.021-511.98-512.021zM512 789.313c-94.262 0-170.688-152.806-170.688-341.292 0-188.523 76.426-341.334 170.688-341.334 188.523 0 341.334 152.806 341.334 341.334 0 188.482-152.806 341.292-341.334 341.292z" />
<glyph unicode="&#xe93a;" glyph-name="Shades" d="M987.386 448.001h-36.575v-73.15c0-60.567-49.119-109.69-109.725-109.69h-146.265c-60.606 0-109.69 49.119-109.69 109.69l-36.211 144.8c-12.655 0.879-25.456 1.5-38.075 1.5-12.144 0-24.138-0.696-35.843-1.718l-36.172-144.583c0-60.567-49.119-109.69-109.725-109.69h-146.265c-60.606 0-109.725 49.119-109.725 109.69v73.15h-36.539c-20.227 0-36.575 16.348-36.575 36.575v36.575c0 20.188 16.348 36.539 36.575 36.539h43.304c15.069 42.536 55.302 73.15 102.96 73.15h182.84c34.564 0 65.032-16.277 85.148-41.293 19.202 2.779 39.354 4.718 60.020 4.718 21.031 0 42.208-1.682 62.91-3.95 20.116 24.542 50.291 40.526 84.526 40.526h182.84c47.73 0 87.891-30.614 102.996-73.15h43.304c20.227 0 36.575-16.348 36.575-36.539v-36.575c-0.036-20.227-16.387-36.575-36.611-36.575zM304.967 570.163c-10.68 10.715-28.089 10.715-38.808 0l-116.344-116.383c-10.715-10.715-10.715-28.089 0-38.808 10.68-10.715 28.089-10.715 38.768 0l116.383 116.383c10.715 10.715 10.715 28.089 0 38.808zM816.98 570.163c-10.715 10.715-28.089 10.715-38.808 0l-116.383-116.383c-10.715-10.715-10.715-28.089 0-38.808s28.089-10.715 38.808 0l116.383 116.383c10.715 10.715 10.715 28.089 0 38.808z" />
<glyph unicode="&#xe93b;" glyph-name="Snowflake" d="M924.17 587.431l-83.553-48.219c8.022-29.104 12.718-59.57 12.718-91.191 0-31.662-4.651-62.129-12.718-91.233l83.553-48.219c40.793-23.599 54.79-75.743 31.192-116.582-23.553-40.793-75.702-54.79-116.536-31.192l-83.382 48.135c-42.801-43.526-97.163-75.36-158.1-91.062v-96.525c0-47.11-38.234-85.344-85.344-85.344s-85.344 38.234-85.344 85.344v96.525c-60.937 15.702-115.344 47.535-158.1 91.062l-83.382-48.135c-40.839-23.599-93.025-9.601-116.536 31.192-23.599 40.839-9.601 93.025 31.192 116.582l83.553 48.219c-8.064 29.104-12.718 59.57-12.718 91.233 0 31.621 4.609 62.087 12.718 91.191l-83.553 48.219c-40.793 23.599-54.79 75.743-31.192 116.582 23.553 40.793 75.702 54.79 116.536 31.192l83.382-48.135c42.756 43.526 97.163 75.36 158.1 91.062v96.525c0 47.11 38.234 85.344 85.344 85.344s85.344-38.234 85.344-85.344v-96.525c60.937-15.702 115.298-47.535 158.1-91.062l83.382 48.135c40.839 23.599 93.025 9.601 116.536-31.192 23.599-40.839 9.601-93.025-31.192-116.582zM512 618.668c-94.262 0-170.689-76.427-170.689-170.647 0-94.262 76.427-170.689 170.689-170.689s170.647 76.427 170.647 170.689c0 94.221-76.385 170.647-170.647 170.647z" />
<glyph unicode="&#xe93c;" glyph-name="Sun" d="M981.327 405.349h-85.302c-23.576 0-42.672 19.096-42.672 42.651s19.096 42.672 42.672 42.672h85.302c23.576 0 42.672-19.117 42.672-42.672s-19.075-42.651-42.672-42.651zM813.734 689.352c-16.662-16.662-43.718-16.662-60.339 0-16.662 16.662-16.662 43.674 0 60.339l60.339 60.339c16.621 16.662 43.674 16.662 60.339 0 16.621-16.662 16.621-43.674 0-60.339l-60.339-60.339zM512.022 192.010c-141.392 0-256.031 114.616-256.031 255.99 0 141.392 114.616 256.010 256.031 256.010 141.392 0 255.99-114.616 255.99-256.010 0-141.371-114.595-255.99-255.99-255.99zM512.022 618.667c-94.262 0-170.688-76.403-170.688-170.667 0-94.241 76.447-170.667 170.688-170.667s170.646 76.426 170.646 170.667c0 94.262-76.382 170.667-170.646 170.667zM512.022 789.333c-23.576 0-42.672 19.117-42.672 42.672v85.323c0 23.555 19.096 42.672 42.672 42.672 23.555 0 42.672-19.117 42.672-42.672v-85.323c0-23.555-19.138-42.672-42.672-42.672zM210.31 689.352l-60.339 60.339c-16.662 16.662-16.662 43.674 0 60.339s43.674 16.662 60.339 0l60.339-60.339c16.662-16.662 16.662-43.674 0-60.339s-43.674-16.662-60.339 0zM170.668 448c0-23.555-19.117-42.651-42.672-42.651h-85.344c-23.555 0-42.651 19.096-42.651 42.651s19.117 42.672 42.651 42.672h85.344c23.576 0 42.672-19.117 42.672-42.672zM210.31 206.648c16.662 16.642 43.674 16.642 60.339 0 16.662-16.662 16.662-43.697 0-60.339l-60.339-60.339c-16.662-16.662-43.674-16.662-60.339 0-16.662 16.642-16.662 43.674 0 60.339l60.339 60.339zM512.022 106.667c23.555 0 42.672-19.096 42.672-42.651v-85.344c0-23.555-19.117-42.672-42.672-42.672-23.576 0-42.672 19.117-42.672 42.672v85.344c0 23.555 19.096 42.651 42.672 42.651zM813.734 206.648l60.339-60.339c16.621-16.662 16.621-43.697 0-60.339-16.662-16.662-43.718-16.662-60.339 0l-60.339 60.339c-16.662 16.642-16.662 43.674 0 60.339 16.621 16.662 43.653 16.662 60.339 0z" />
<glyph unicode="&#xe93d;" glyph-name="Sun-Low" d="M981.328 277.312h-85.323c-23.555 0-42.672 19.117-42.672 42.672 0 23.576 19.117 42.672 42.672 42.672h85.323c23.576 0 42.672-19.096 42.672-42.672 0-23.555-19.075-42.672-42.672-42.672zM813.713 561.358c-16.662-16.662-43.697-16.662-60.339 0s-16.642 43.674 0 60.339l60.339 60.339c16.642 16.642 43.674 16.642 60.339 0 16.642-16.662 16.642-43.674 0-60.339l-60.339-60.339zM753.139 234.682h-93.472c14.552 25.091 23.001 54.171 23.001 85.302 0 94.262-76.403 170.688-170.667 170.688-94.241 0-170.667-76.426-170.667-170.688 0-31.129 8.449-60.21 23.022-85.302h-93.472c-9.474 26.712-14.894 55.346-14.894 85.302 0 141.393 114.639 256.011 256.011 256.011 141.393 0 256.011-114.595 256.011-256.011 0-29.956-5.419-58.589-14.871-85.302zM512.001 661.339c-23.555 0-42.651 19.117-42.651 42.672v85.323c0 23.555 19.096 42.672 42.651 42.672s42.672-19.117 42.672-42.672v-85.323c0-23.576-19.117-42.672-42.672-42.672zM210.309 561.358l-60.339 60.339c-16.662 16.662-16.662 43.674 0 60.339 16.642 16.642 43.674 16.642 60.339 0l60.339-60.339c16.642-16.662 16.642-43.674 0-60.339-16.662-16.662-43.674-16.662-60.339 0zM170.667 319.984c0-23.555-19.117-42.672-42.651-42.672h-85.344c-23.555 0-42.672 19.117-42.672 42.672 0 23.576 19.117 42.672 42.672 42.672h85.344c23.534 0 42.651-19.096 42.651-42.672zM298.662 149.338h426.678c23.555 0 42.672-19.117 42.672-42.672 0-23.576-19.117-42.672-42.672-42.672h-426.678c-23.555 0-42.672 19.096-42.672 42.672 0 23.534 19.117 42.672 42.672 42.672z" />
<glyph unicode="&#xe93e;" glyph-name="Sun-Lower" d="M924.473 486.311c-22.778-22.75-59.764-22.75-82.485 0-22.778 22.778-22.778 59.736 0 82.485l82.485 82.485c22.721 22.778 59.704 22.778 82.485 0 22.721-22.75 22.721-59.704 0-82.485l-82.485-82.485zM713.858 273.009c-40.395 69.679-115.532 116.668-201.837 116.668s-161.499-46.989-201.837-116.668h-127.78c48.069 135.861 177.278 233.337 329.617 233.337 152.281 0 281.519-97.476 329.617-233.337h-127.78zM512.021 622.958c-32.229 0-58.334 26.134-58.334 58.334v116.668c0 32.201 26.105 58.306 58.334 58.306 32.201 0 58.334-26.105 58.334-58.306v-116.668c0-32.201-26.134-58.334-58.334-58.334zM99.569 486.311l-82.485 82.485c-22.778 22.778-22.778 59.736 0 82.485 22.778 22.778 59.704 22.778 82.485 0l82.485-82.485c22.778-22.75 22.778-59.704 0-82.485-22.778-22.75-59.676-22.75-82.485 0zM220.35 156.401h583.285c32.229 0 58.334-26.134 58.334-58.334 0-32.229-26.105-58.334-58.334-58.334h-583.285c-32.201 0-58.334 26.105-58.334 58.334 0 32.172 26.134 58.334 58.334 58.334z" />
<glyph unicode="&#xe93f;" glyph-name="Sunrise" d="M270.647 621.707l-60.339 60.339c-16.663 16.642-43.674 16.642-60.339 0-16.663-16.663-16.663-43.674 0-60.339l60.339-60.339c16.663-16.663 43.674-16.663 60.339 0s16.663 43.653 0 60.339zM981.328 362.666h-85.323c-23.555 0-42.651-19.117-42.651-42.672s19.096-42.672 42.651-42.672h85.323c23.576 0 42.672 19.117 42.672 42.672s-19.075 42.672-42.672 42.672zM128.016 362.666h-85.344c-23.555 0-42.672-19.117-42.672-42.672s19.117-42.672 42.672-42.672h85.344c23.555 0 42.672 19.117 42.672 42.672s-19.138 42.672-42.672 42.672zM725.339 149.327h-426.679c-23.555 0-42.651-19.117-42.651-42.672s19.117-42.651 42.651-42.651h426.679c23.555 0 42.672 19.096 42.672 42.651s-19.096 42.672-42.672 42.672zM874.052 682.046c-16.642 16.642-43.697 16.642-60.339 0l-60.339-60.339c-16.642-16.663-16.642-43.674 0-60.339 16.663-16.663 43.697-16.663 60.339 0l60.339 60.339c16.642 16.663 16.642 43.674 0 60.339zM512.021 661.329c23.555 0 42.651 19.117 42.651 42.672v85.323c0 23.555-19.117 42.672-42.651 42.672-23.576 0-42.672-19.117-42.672-42.672v-85.323c0-23.555 19.096-42.672 42.672-42.672zM512.021 575.984c-141.393 0-256.011-114.596-256.011-255.991 0-29.956 5.419-58.609 14.871-85.323h93.472c-14.573 25.111-23.022 54.194-23.022 85.323 0 94.262 76.426 170.667 170.688 170.667 94.241 0 170.647-76.403 170.647-170.667 0-31.129-8.449-60.21-23.001-85.323h93.472c9.451 26.712 14.871 55.367 14.871 85.323 0 141.393-114.617 255.991-255.991 255.991zM512.021 229.337c11.776 0 21.315 9.537 21.315 21.336v81.652l54.109-54.086c8.322-8.343 21.828-8.343 30.168 0 8.322 8.343 8.322 21.828 0 30.168l-90.507 90.507c-8.343 8.343-21.849 8.343-30.168 0l-90.507-90.507c-8.343-8.343-8.343-21.828 0-30.168s21.828-8.343 30.168 0l54.086 54.086v-81.652c0-11.799 9.537-21.336 21.336-21.336z" />
<glyph unicode="&#xe940;" glyph-name="Sunset" d="M981.349 277.322h-85.344c-23.555 0-42.651 19.117-42.651 42.672s19.096 42.672 42.651 42.672h85.344c23.555 0 42.651-19.117 42.651-42.672s-19.075-42.672-42.651-42.672zM813.732 561.347c-16.662-16.662-43.697-16.662-60.339 0-16.662 16.662-16.662 43.674 0 60.339l60.339 60.339c16.642 16.642 43.674 16.642 60.316 0 16.662-16.662 16.662-43.674 0-60.339l-60.316-60.339zM753.137 234.671h-93.472c14.552 25.111 23.001 54.194 23.001 85.323 0 94.262-76.403 170.667-170.646 170.667-94.262 0-170.688-76.403-170.688-170.667 0-31.129 8.47-60.21 23.042-85.323h-93.495c-9.451 26.712-14.871 55.367-14.871 85.323 0 141.393 114.616 255.99 256.011 255.99 141.372 0 255.99-114.595 255.99-255.99 0-29.956-5.419-58.609-14.871-85.323zM512.020 661.328c-23.576 0-42.672 19.117-42.672 42.672v85.323c0 23.555 19.096 42.672 42.672 42.672 23.555 0 42.672-19.117 42.672-42.672v-85.323c0-23.555-19.138-42.672-42.672-42.672zM210.307 561.347l-60.339 60.339c-16.662 16.662-16.662 43.674 0 60.339 16.662 16.642 43.674 16.642 60.339 0l60.339-60.339c16.662-16.662 16.662-43.674 0-60.339s-43.653-16.662-60.339 0zM170.688 319.994c0-23.555-19.117-42.672-42.672-42.672h-85.344c-23.555 0-42.672 19.117-42.672 42.672s19.117 42.672 42.672 42.672h85.344c23.555 0 42.672-19.117 42.672-42.672zM512.020 405.338c11.776 0 21.336-9.56 21.336-21.336v-81.675l54.086 54.086c8.343 8.343 21.828 8.343 30.168 0s8.343-21.828 0-30.168l-90.507-90.507c-8.343-8.343-21.828-8.343-30.168 0l-90.507 90.507c-8.343 8.343-8.343 21.828 0 30.168s21.828 8.343 30.168 0l54.086-54.086v81.675c0 11.776 9.537 21.336 21.336 21.336zM298.681 149.327h426.655c23.555 0 42.672-19.117 42.672-42.672s-19.117-42.651-42.672-42.651h-426.655c-23.555 0-42.672 19.096-42.672 42.651s19.096 42.672 42.672 42.672z" />
<glyph unicode="&#xe941;" glyph-name="Thermometer" d="M512-64c-125.684 0-227.559 101.872-227.559 227.559 0 57.608 21.592 110.068 56.869 150.151v475.628c0 94.249 76.441 170.662 170.69 170.662 94.221 0 170.662-76.413 170.662-170.662v-475.628c35.277-40.083 56.897-92.543 56.897-150.151 0-125.684-101.903-227.559-227.559-227.559zM568.869 261.561v527.771c0 31.407-25.49 56.897-56.869 56.897-31.407 0-56.897-25.49-56.897-56.897v-527.771c-33.855-19.714-56.897-56.016-56.897-98.005 0-62.842 50.951-113.765 113.793-113.765 62.814 0 113.765 50.924 113.765 113.765 0 42.017-23.042 78.288-56.897 98.005z" />
<glyph unicode="&#xe942;" glyph-name="Thermometer-25" d="M511.973-64c-125.687 0-227.538 101.847-227.538 227.538 0 57.61 21.565 110.071 56.898 150.183v475.612c0 94.252 76.415 170.667 170.639 170.667 94.279 0 170.695-76.415 170.695-170.667v-475.612c35.278-40.112 56.898-92.574 56.898-150.183 0-125.687-101.906-227.538-227.593-227.538zM568.871 261.545v527.787c0 31.408-25.463 56.898-56.898 56.898-31.408 0-56.898-25.49-56.898-56.898v-527.787c-33.825-19.714-56.843-56.018-56.843-98.008 0-62.844 50.895-113.741 113.741-113.741s113.797 50.895 113.797 113.741c0 41.99-23.015 78.291-56.898 98.008zM511.973 78.19c-47.111 0-85.292 38.237-85.292 85.347 0 37.126 23.784 68.334 56.843 80.113v147.48h56.898v-147.48c33.058-11.777 56.898-43.015 56.898-80.113 0-47.111-38.237-85.347-85.347-85.347z" />
<glyph unicode="&#xe943;" glyph-name="Thermometer-50" d="M512.028-64c-125.681 0-227.581 101.9-227.581 227.581 0 57.606 21.619 110.065 56.895 150.175v475.558c0 94.247 76.411 170.686 170.686 170.686 94.219 0 170.63-76.439 170.63-170.686v-475.558c35.332-40.11 56.895-92.569 56.895-150.175 0-125.681-101.842-227.581-227.525-227.581zM568.923 261.583v527.731c0 31.406-25.489 56.895-56.895 56.895-31.434 0-56.895-25.489-56.895-56.895v-527.731c-33.882-19.713-56.895-56.015-56.895-98.003 0-62.84 50.95-113.79 113.79-113.79s113.79 50.95 113.79 113.79c0 41.988-23.072 78.286-56.895 98.003zM512.028 78.238c-47.108 0-85.343 38.235-85.343 85.343 0 37.124 23.839 68.33 56.895 80.109v291.446h56.895v-291.446c33.056-11.776 56.895-43.013 56.895-80.109 0-47.108-38.235-85.343-85.343-85.343z" />
<glyph unicode="&#xe944;" glyph-name="Thermometer-75" d="M512.028-64c-125.681 0-227.581 101.9-227.581 227.581 0 57.606 21.619 110.065 56.895 150.175v475.558c0 94.247 76.439 170.686 170.686 170.686 94.219 0 170.658-76.439 170.658-170.686v-475.558c35.304-40.11 56.867-92.569 56.867-150.175 0-125.681-101.842-227.581-227.525-227.581zM568.923 261.583v527.759c0 31.406-25.489 56.895-56.895 56.895s-56.895-25.489-56.895-56.895v-527.759c-33.854-19.713-56.895-56.015-56.895-98.003 0-62.84 50.95-113.79 113.79-113.79s113.763 50.95 113.763 113.79c0 41.988-23.041 78.286-56.867 98.003zM512.028 78.238c-47.108 0-85.343 38.235-85.343 85.343 0 37.124 23.839 68.33 56.895 80.109v433.656h56.895v-433.656c33.056-11.776 56.895-43.013 56.895-80.109 0-47.108-38.235-85.343-85.343-85.343z" />
<glyph unicode="&#xe945;" glyph-name="Thermometer-100" d="M512.027-64c-125.681 0-227.581 101.9-227.581 227.581 0 57.606 21.619 110.065 56.895 150.175v475.558c0 94.247 76.411 170.686 170.686 170.686 94.219 0 170.686-76.439 170.686-170.686v-475.558c35.276-40.11 56.84-92.569 56.84-150.175 0-125.681-101.842-227.581-227.525-227.581zM568.922 261.583v527.731c0 31.406-25.489 56.895-56.895 56.895-31.434 0-56.895-25.489-56.895-56.895v-527.731c-33.823-19.713-56.895-56.015-56.895-98.003 0-62.84 50.95-113.79 113.79-113.79s113.79 50.95 113.79 113.79c0 41.988-23.072 78.286-56.895 98.003zM512.027 78.238c-47.108 0-85.343 38.235-85.343 85.343 0 37.124 23.839 68.33 56.895 80.109v545.652c0 15.732 12.715 28.448 28.448 28.448s28.448-12.715 28.448-28.448v-545.652c33.056-11.776 56.895-43.013 56.895-80.109 0-47.108-38.235-85.343-85.343-85.343z" />
<glyph unicode="&#xe946;" glyph-name="Thermometer-Zero" d="M512-64c-125.656 0-227.559 101.872-227.559 227.559 0 57.608 21.592 110.068 56.897 150.151v475.628c0 94.249 76.441 170.662 170.662 170.662 94.249 0 170.69-76.413 170.69-170.662v-475.628c35.277-40.083 56.869-92.543 56.869-150.151 0-125.684-101.872-227.559-227.559-227.559zM568.897 261.561v527.771c0 31.407-25.49 56.897-56.897 56.897s-56.869-25.49-56.869-56.897v-527.771c-33.855-19.714-56.897-56.016-56.897-98.005 0-62.842 50.951-113.765 113.765-113.765 62.842 0 113.793 50.924 113.793 113.765 0 42.017-23.042 78.288-56.897 98.005zM512 78.211c-47.109 0-85.317 38.236-85.317 85.345s38.205 85.345 85.317 85.345c47.14 0 85.345-38.236 85.345-85.345s-38.205-85.345-85.345-85.345z" />
<glyph unicode="&#xe947;" glyph-name="Tornado" d="M975.233 789.337h-926.465c-26.92 0-48.768 21.848-48.768 48.744 0 26.92 21.848 48.768 48.768 48.768h926.465c26.92 0 48.768-21.848 48.768-48.768 0-26.896-21.824-48.744-48.768-48.744zM97.536 691.802h731.418c26.92 0 48.768-21.848 48.768-48.768s-21.848-48.744-48.768-48.744h-731.418c-26.92 0-48.768 21.848-48.768 48.744 0 26.944 21.848 48.768 48.768 48.768zM390.095 496.755h536.397c26.92 0 48.744-21.848 48.744-48.744 0-26.92-21.824-48.768-48.744-48.768h-536.397c-26.92 0-48.744 21.848-48.744 48.768 0 26.896 21.824 48.744 48.744 48.744zM438.862 106.663h146.279c26.92 0 48.768-21.848 48.768-48.744 0-26.92-21.848-48.768-48.768-48.768h-146.279c-26.92 0-48.768 21.848-48.768 48.768 0 26.896 21.848 48.744 48.768 48.744zM463.246 252.966c0 26.92 21.848 48.744 48.768 48.744h341.326c26.92 0 48.768-21.848 48.768-48.744 0-26.92-21.848-48.768-48.768-48.768h-341.326c-26.92 0-48.768 21.824-48.768 48.768z" />
<glyph unicode="&#xe948;" glyph-name="Umbrella" d="M896.028 529.443c-70.689 0-128.017-31.259-128.017-69.805 0 38.544-57.283 69.805-128.017 69.805-43.363 0-81.559-11.847-104.696-29.84v-202.873h23.276v-93.104c0-25.697 20.832-46.552 46.552-46.552 25.697 0 46.506 20.855 46.506 46.552s20.855 46.552 46.552 46.552c25.719 0 46.552-20.855 46.552-46.552 0-77.113-62.52-139.633-139.61-139.633-77.135 0-139.655 62.52-139.655 139.633v93.104h23.276v202.873c-23.137 17.993-61.331 29.84-104.741 29.84-70.689 0-127.972-31.259-127.972-69.805v0c0 38.544-57.328 69.805-128.017 69.805s-128.017-31.259-128.017-69.805c0 167.098 229.267 372.369 512.047 372.369s511.953-205.271 511.953-372.369c0 38.544-57.283 69.805-127.972 69.805z" />
<glyph unicode="&#xe949;" glyph-name="Wind" d="M884.392 401.471v0h-69.828c-25.719 0-46.552 20.832-46.552 46.529s20.832 46.552 46.552 46.552h69.828c25.697 0 46.552 20.855 46.552 46.529 0 25.719-20.855 46.552-46.552 46.552-25.719 0-46.552 20.855-46.552 46.552s20.832 46.552 46.552 46.552c3.189 0 6.308-0.325 9.356-0.955 72.644-4.912 130.252-64.777 130.252-138.701 0-77.090-62.495-139.61-139.61-139.61zM651.633 494.552h-512c-25.697 0-46.529-20.855-46.529-46.552s20.832-46.529 46.529-46.529h512c77.136 0 139.656-62.543 139.656-139.656 0-73.924-57.608-133.791-130.252-138.701-3.048-0.627-6.169-0.955-9.404-0.955-25.697 0-46.552 20.855-46.552 46.552 0 25.719 20.855 46.552 46.552 46.552 25.719 0 46.552 20.855 46.552 46.552s-20.832 46.552-46.552 46.552h-512c-77.113 0-139.633 62.52-139.633 139.633 0 73.901 57.608 133.766 130.252 138.701 3.048 0.605 6.192 0.932 9.381 0.932v0h512c25.719 0 46.552 20.855 46.552 46.552s-20.832 46.552-46.552 46.552c-25.697 0-46.552 20.832-46.552 46.552 0 25.697 20.855 46.552 46.552 46.552 3.235 0 6.355-0.35 9.404-0.955 72.644-4.912 130.252-64.777 130.252-138.701 0-77.090-62.52-139.633-139.656-139.633z" />
</font>
</defs>
</svg>
